<?xml version="1.0" encoding="UTF-8"?>
<svg version="1.1" xmlns="http://www.w3.org/2000/svg" width="512" height="512">
<path d="M0 0 C12 13.23636364 12 13.23636364 12 18 C13.051875 18.061875 14.10375 18.12375 15.1875 18.1875 C31.16783151 20.24856749 44.79318307 30.03018742 55 42 C60.93957327 50.19182757 65.95555246 59.07098219 67.48046875 69.1875 C68.86020098 77.98458973 72.39735583 81.98421232 78.9921875 87.4609375 C88.59439583 95.56669778 94.92114437 107.61807993 97 120 C97.2909063 123.56754039 97.33045874 127.10937649 97.3125 130.6875 C97.31556152 131.65848633 97.31862305 132.62947266 97.32177734 133.62988281 C97.26703682 139.19486005 96.72943796 143.92935397 95.125 149.25 C93.94333779 153.44428352 93.94333779 153.44428352 94.99609375 157.546875 C96.05591262 159.20664121 97.15661669 160.840883 98.29296875 162.44921875 C105.90707304 173.82681624 105.66014426 189.80391999 103.3046875 202.8515625 C101.75875319 208.29481019 99.55977825 212.88922142 96.6875 217.75 C93.6840949 222.92672336 93.54783875 226.29892248 95 232 C98.94305607 249.74189412 95.98197457 268.34981761 86.9765625 284.00390625 C83.78619744 288.8398944 80.10883804 292.93197823 76 297 C75.26265625 297.77085937 74.5253125 298.54171875 73.765625 299.3359375 C64.51655032 308.42982636 53.57614718 313.55268487 40.9375 315.875 C36.86889446 316.64384178 33.74115707 317.30995721 30.62109375 320.21484375 C28.92065176 322.74458408 27.46392957 325.3285353 26 328 C17.79723462 338.24325427 4.89528247 345.03683759 -8 347 C-10.33301986 347.03824623 -12.66711508 347.04574284 -15 347 C-14.62713867 347.6391333 -14.25427734 348.2782666 -13.87011719 348.93676758 C-12.15419741 351.89009878 -10.45207989 354.85117258 -8.75 357.8125 C-8.16347656 358.81732422 -7.57695312 359.82214844 -6.97265625 360.85742188 C0.25689067 373.48882126 4.36240944 384.63919954 1.3046875 399.34375 C-1.96283171 410.21717527 -8.73393898 419.01704587 -18.7578125 424.51171875 C-28.8738832 429.12073791 -39.32424487 430.5098373 -50 427 C-64.53808002 421.34524088 -71.87716375 411.52145501 -79.125 398.1875 C-79.79415112 396.98033058 -80.46472031 395.7739461 -81.13671875 394.56835938 C-81.63231544 393.67706329 -81.63231544 393.67706329 -82.13792419 392.76776123 C-82.79717989 391.58342452 -83.45753674 390.39970005 -84.11903381 389.21661377 C-85.73336998 386.32088958 -87.30001767 383.41364044 -88.81030273 380.46191406 C-89.67957397 378.82367676 -89.67957397 378.82367676 -90.56640625 377.15234375 C-91.06599854 376.17386475 -91.56559082 375.19538574 -92.08032227 374.18725586 C-93.9033811 371.65940759 -93.9033811 371.65940759 -97.39038086 371.34545898 C-100.95738586 371.37625071 -104.44764317 371.69075465 -108 372 C-123.32525407 370.59518504 -137.12104705 361.38431721 -147 350 C-156.3637832 338.40008946 -162.56489524 325.43764328 -166 311 C-166.36556325 309.52954317 -166.73277704 308.05949578 -167.1015625 306.58984375 C-167.54628906 304.81287109 -167.54628906 304.81287109 -168 303 C-168.98097656 302.8040625 -169.96195313 302.608125 -170.97265625 302.40625 C-184.10099106 299.57535548 -195.36184062 294.30295366 -206 286 C-206.66 286.70125 -207.32 287.4025 -208 288.125 C-218.62583573 298.63177875 -229.94281339 302.2919285 -244.57568359 302.31689453 C-255.71267546 302.14568627 -264.17858063 298.70003595 -273 292 C-274.010625 291.29875 -275.02125 290.5975 -276.0625 289.875 C-282.35978642 284.44204701 -287.51108638 276.18902493 -289 268 C-289.64324219 268.03480469 -290.28648437 268.06960938 -290.94921875 268.10546875 C-304.85671356 268.52209841 -316.85396069 264.97512485 -327.52734375 255.8359375 C-329.4737804 253.9544961 -331.33291359 252.13288996 -333 250 C-333 249.34 -333 248.68 -333 248 C-334.00417969 248.04640625 -335.00835937 248.0928125 -336.04296875 248.140625 C-351.844295 248.65159866 -364.91221679 244.7196791 -376.75 233.75 C-387.26112167 222.43226948 -392.30103489 208.40702499 -392.23828125 193.07421875 C-391.97414743 189.66645953 -391.2723309 186.56263951 -390.4375 183.25 C-388.8533742 176.92096911 -389.22313161 172.69393145 -391.02734375 166.4375 C-394.70174945 151.62976363 -392.56012537 135.37539632 -384.875 122.3125 C-379.21467883 114.07385456 -373.24898977 107.85967687 -364.125 103.625 C-359.48775903 101.33601925 -359.48775903 101.33601925 -356.49609375 97.2890625 C-355.8694834 95.24930161 -355.30345306 93.1900222 -354.796875 91.1171875 C-351.58659194 78.55931553 -342.06410186 68.42213028 -331.47265625 61.46484375 C-320.51670768 54.97435289 -310.62615825 53.6487313 -298 54 C-297.5978125 52.66388672 -297.5978125 52.66388672 -297.1875 51.30078125 C-292.64399486 38.67163046 -281.72526898 29.79162395 -269.95703125 24.171875 C-267.18020816 23.07141671 -264.60616742 22.45961927 -261.6875 21.875 C-258.29619812 20.97173459 -257.22323881 20.30240804 -255.10546875 17.43359375 C-253.93856612 15.32895448 -252.80230716 13.20706963 -251.6953125 11.0703125 C-245.71327848 0.23649052 -233.81509498 -6.80103363 -222.234375 -10.28125 C-207.52257187 -13.55053958 -192.39316863 -12.31954218 -179.37890625 -4.40625 C-177.21964948 -2.97797407 -175.09616052 -1.5189569 -173 0 C-172.071875 -0.99 -172.071875 -0.99 -171.125 -2 C-159.4546569 -13.53921565 -147.14170197 -19.91076974 -130.6875 -20.3125 C-116.19097891 -20.06630534 -105.82511814 -14.98109286 -94 -7 C-93.25878906 -7.51949219 -92.51757812 -8.03898437 -91.75390625 -8.57421875 C-62.88437482 -27.69100761 -25.13576558 -24.06939977 0 0 Z " fill="#FC636E" transform="translate(400,52)"/>
<path d="M0 0 C12 13.23636364 12 13.23636364 12 18 C13.051875 18.061875 14.10375 18.12375 15.1875 18.1875 C31.16783151 20.24856749 44.79318307 30.03018742 55 42 C60.93957327 50.19182757 65.95555246 59.07098219 67.48046875 69.1875 C68.86020098 77.98458973 72.39735583 81.98421232 78.9921875 87.4609375 C88.59439583 95.56669778 94.92114437 107.61807993 97 120 C97.2909063 123.56754039 97.33045874 127.10937649 97.3125 130.6875 C97.31556152 131.65848633 97.31862305 132.62947266 97.32177734 133.62988281 C97.26703682 139.19486005 96.72943796 143.92935397 95.125 149.25 C93.94333779 153.44428352 93.94333779 153.44428352 94.99609375 157.546875 C96.05591262 159.20664121 97.15661669 160.840883 98.29296875 162.44921875 C105.90707304 173.82681624 105.66014426 189.80391999 103.3046875 202.8515625 C101.75875319 208.29481019 99.55977825 212.88922142 96.6875 217.75 C93.6840949 222.92672336 93.54783875 226.29892248 95 232 C98.94305607 249.74189412 95.98197457 268.34981761 86.9765625 284.00390625 C83.78619744 288.8398944 80.10883804 292.93197823 76 297 C75.26265625 297.77085937 74.5253125 298.54171875 73.765625 299.3359375 C64.51655032 308.42982636 53.57614718 313.55268487 40.9375 315.875 C36.86889446 316.64384178 33.74115707 317.30995721 30.62109375 320.21484375 C28.92065176 322.74458408 27.46392957 325.3285353 26 328 C17.79723462 338.24325427 4.89528247 345.03683759 -8 347 C-10.33301986 347.03824623 -12.66711508 347.04574284 -15 347 C-14.62713867 347.6391333 -14.25427734 348.2782666 -13.87011719 348.93676758 C-12.15419741 351.89009878 -10.45207989 354.85117258 -8.75 357.8125 C-8.16347656 358.81732422 -7.57695312 359.82214844 -6.97265625 360.85742188 C0.25689067 373.48882126 4.36240944 384.63919954 1.3046875 399.34375 C-1.96283171 410.21717527 -8.73393898 419.01704587 -18.7578125 424.51171875 C-28.8738832 429.12073791 -39.32424487 430.5098373 -50 427 C-64.53808002 421.34524088 -71.87716375 411.52145501 -79.125 398.1875 C-79.79415112 396.98033058 -80.46472031 395.7739461 -81.13671875 394.56835938 C-81.63231544 393.67706329 -81.63231544 393.67706329 -82.13792419 392.76776123 C-82.79717989 391.58342452 -83.45753674 390.39970005 -84.11903381 389.21661377 C-85.73336998 386.32088958 -87.30001767 383.41364044 -88.81030273 380.46191406 C-89.67957397 378.82367676 -89.67957397 378.82367676 -90.56640625 377.15234375 C-91.06599854 376.17386475 -91.56559082 375.19538574 -92.08032227 374.18725586 C-93.9033811 371.65940759 -93.9033811 371.65940759 -97.39038086 371.34545898 C-100.95738586 371.37625071 -104.44764317 371.69075465 -108 372 C-123.32525407 370.59518504 -137.12104705 361.38431721 -147 350 C-156.3637832 338.40008946 -162.56489524 325.43764328 -166 311 C-166.36556325 309.52954317 -166.73277704 308.05949578 -167.1015625 306.58984375 C-167.54628906 304.81287109 -167.54628906 304.81287109 -168 303 C-168.98097656 302.8040625 -169.96195313 302.608125 -170.97265625 302.40625 C-184.10099106 299.57535548 -195.36184062 294.30295366 -206 286 C-206.66 286.70125 -207.32 287.4025 -208 288.125 C-218.62583573 298.63177875 -229.94281339 302.2919285 -244.57568359 302.31689453 C-255.71267546 302.14568627 -264.17858063 298.70003595 -273 292 C-274.010625 291.29875 -275.02125 290.5975 -276.0625 289.875 C-282.35978642 284.44204701 -287.51108638 276.18902493 -289 268 C-289.64324219 268.03480469 -290.28648437 268.06960938 -290.94921875 268.10546875 C-304.85671356 268.52209841 -316.85396069 264.97512485 -327.52734375 255.8359375 C-329.4737804 253.9544961 -331.33291359 252.13288996 -333 250 C-333 249.34 -333 248.68 -333 248 C-334.00417969 248.04640625 -335.00835937 248.0928125 -336.04296875 248.140625 C-351.844295 248.65159866 -364.91221679 244.7196791 -376.75 233.75 C-387.26112167 222.43226948 -392.30103489 208.40702499 -392.23828125 193.07421875 C-391.97414743 189.66645953 -391.2723309 186.56263951 -390.4375 183.25 C-388.8533742 176.92096911 -389.22313161 172.69393145 -391.02734375 166.4375 C-394.70174945 151.62976363 -392.56012537 135.37539632 -384.875 122.3125 C-379.21467883 114.07385456 -373.24898977 107.85967687 -364.125 103.625 C-359.48775903 101.33601925 -359.48775903 101.33601925 -356.49609375 97.2890625 C-355.8694834 95.24930161 -355.30345306 93.1900222 -354.796875 91.1171875 C-351.58659194 78.55931553 -342.06410186 68.42213028 -331.47265625 61.46484375 C-320.51670768 54.97435289 -310.62615825 53.6487313 -298 54 C-297.5978125 52.66388672 -297.5978125 52.66388672 -297.1875 51.30078125 C-292.64399486 38.67163046 -281.72526898 29.79162395 -269.95703125 24.171875 C-267.18020816 23.07141671 -264.60616742 22.45961927 -261.6875 21.875 C-258.29619812 20.97173459 -257.22323881 20.30240804 -255.10546875 17.43359375 C-253.93856612 15.32895448 -252.80230716 13.20706963 -251.6953125 11.0703125 C-245.71327848 0.23649052 -233.81509498 -6.80103363 -222.234375 -10.28125 C-207.52257187 -13.55053958 -192.39316863 -12.31954218 -179.37890625 -4.40625 C-177.21964948 -2.97797407 -175.09616052 -1.5189569 -173 0 C-172.071875 -0.99 -172.071875 -0.99 -171.125 -2 C-159.4546569 -13.53921565 -147.14170197 -19.91076974 -130.6875 -20.3125 C-116.19097891 -20.06630534 -105.82511814 -14.98109286 -94 -7 C-93.25878906 -7.51949219 -92.51757812 -8.03898437 -91.75390625 -8.57421875 C-62.88437482 -27.69100761 -25.13576558 -24.06939977 0 0 Z M-85 7 C-84.73445313 7.556875 -84.46890625 8.11375 -84.1953125 8.6875 C-79.71401581 18.36971766 -76.89455542 28.36695776 -80 39 C-81.43640171 39.19573608 -82.87419504 39.38127816 -84.3125 39.5625 C-85.11300781 39.66691406 -85.91351563 39.77132812 -86.73828125 39.87890625 C-89 40 -89 40 -92 39 C-92.08451416 38.45174561 -92.16902832 37.90349121 -92.25610352 37.33862305 C-94.38223916 24.06802787 -96.57928272 13.06835141 -107.375 4.0625 C-108.89451159 3.00897196 -110.43566524 1.98574519 -112 1 C-112.6290625 0.566875 -113.258125 0.13375 -113.90625 -0.3125 C-121.48122656 -4.64105803 -131.59149297 -4.16997432 -140 -3 C-151.71793696 0.46729452 -159.07055563 8.56205011 -164.7734375 18.99609375 C-166 21 -166 21 -168 22 C-170.8125 22.375 -170.8125 22.375 -174 22 C-176.4375 19.875 -176.4375 19.875 -179 17 C-187.67129247 8.64907548 -196.8499328 5.01542426 -208.875 4.625 C-220.02854268 4.83903387 -228.15546767 9.11482242 -236 17 C-238.39343613 20.17445213 -240.25886691 23.43153911 -242 27 C-242.50853516 27.96873047 -242.50853516 27.96873047 -243.02734375 28.95703125 C-246.76024879 37.12813676 -245.92798551 47.18253114 -243.1328125 55.52734375 C-241.78879617 58.46100699 -240.11180834 61.01039143 -238.3125 63.6875 C-234.50458487 69.37924629 -234.50458487 69.37924629 -234.375 73 C-235 76 -235 76 -236 77.9375 C-238.57111734 79.30340609 -240.89431016 79.9085356 -243.8125 79.78515625 C-249.82989452 77.62534143 -252.84141282 70.29957556 -255.54296875 64.9375 C-259.14323786 56.49112086 -260.22098281 48.05752824 -261 39 C-269.35237769 41.42801677 -275.77568541 46.47407246 -280.375 53.875 C-282.68987687 58.08742382 -284.47034537 62.43040307 -286.04296875 66.96875 C-287 69 -287 69 -290 71 C-292.26147461 71.13183594 -292.26147461 71.13183594 -294.90234375 70.984375 C-310.9064321 70.2036908 -310.9064321 70.2036908 -325 77 C-325.763125 77.55300781 -326.52625 78.10601562 -327.3125 78.67578125 C-335.08441183 84.89045339 -340.10015361 93.52890691 -341.296875 103.46484375 C-341.42563011 104.99257262 -341.52786919 106.52295871 -341.59375 108.0546875 C-342.13247844 110.63436789 -342.90596733 111.40817645 -345 113 C-346.86913215 113.83349449 -348.76974584 114.59794627 -350.6875 115.3125 C-356.19470073 117.53796712 -360.59952293 120.01484886 -365 124 C-365.81404297 124.73283203 -365.81404297 124.73283203 -366.64453125 125.48046875 C-373.36709215 132.37322107 -376.27322295 141.72471217 -376.5 151.1875 C-376.2461397 157.88493212 -375.08093083 164.13019881 -371.88671875 170.0703125 C-370.43820454 173.22258572 -371.27890206 175.67185565 -372 179 C-372.515625 180.134375 -373.03125 181.26875 -373.5625 182.4375 C-376.64075332 190.25504431 -376.22224456 200.87131854 -373.25 208.625 C-368.06807648 219.44023412 -361.12660853 226.48971647 -350 231 C-340.71358801 233.94038696 -330.40668929 232.17427618 -321.84765625 227.93359375 C-312.84322523 222.69685172 -308.04918177 215.87455742 -303.48046875 206.6953125 C-302 204 -302 204 -300 203 C-296.62177584 202.85624578 -294.22609045 202.92463652 -291 204 C-289.03755285 211.71895878 -290.85078273 216.00635152 -294.84765625 222.78125 C-300.13768906 230.69229725 -305.66137085 236.41021548 -314.12890625 240.84375 C-314.74636719 241.2253125 -315.36382812 241.606875 -316 242 C-316 242.66 -316 243.32 -316 244 C-313.85535214 245.56288033 -313.85535214 245.56288033 -311.1875 247.0625 C-310.29417969 247.58972656 -309.40085937 248.11695313 -308.48046875 248.66015625 C-304.62618381 250.74207709 -301.90687999 251.09420347 -297.59765625 250.95703125 C-296.01500977 250.92512695 -296.01500977 250.92512695 -294.40039062 250.89257812 C-292.17872187 250.83927887 -289.95730366 250.77421076 -287.73632812 250.69726562 C-286.67994141 250.67986328 -285.62355469 250.66246094 -284.53515625 250.64453125 C-283.08701538 250.60356323 -283.08701538 250.60356323 -281.60961914 250.56176758 C-278.24266105 251.12717966 -277.10199394 252.37175059 -275 255 C-274.34765625 257.26171875 -274.34765625 257.26171875 -274.0625 259.6875 C-272.33635256 269.6494187 -267.07073107 276.10982889 -259 282 C-251.86546848 286.73412839 -244.35364788 286.91338291 -236 286 C-228.64716768 284.36148583 -221.46736871 280.16703599 -217 274 C-217.09610541 269.60872187 -219.42859356 265.90876729 -221.375 262.0625 C-226.29036477 251.89774083 -230.23685444 239.3780155 -228 228 C-226.1953125 225.6640625 -226.1953125 225.6640625 -224 224 C-220.44829057 224 -218.06064654 224.02604092 -215.375 226.4921875 C-213.33797993 230.20743433 -213.07680393 233.95901734 -212.5625 238.125 C-210.37672748 253.36377602 -204.57406537 265.02795361 -192.55859375 275.1484375 C-181.83745025 282.9069444 -171.98316091 286.35331562 -158.875 286.1875 C-157.41126953 286.1865332 -157.41126953 286.1865332 -155.91796875 286.18554688 C-151.45203341 286.15812981 -147.37247829 285.96946767 -143 285 C-139.81587524 284.41301352 -137.14899862 284.12651452 -134 285 C-131.41092304 287.67461915 -129.76545854 290.74322245 -128 294 C-123.67825466 300.2735013 -118.20752081 302.92416273 -111 305 C-101.3217212 306.0684621 -92.59525441 304.86089985 -84.4921875 299.26953125 C-79.77796889 295.3721327 -76.67190645 291.41360853 -74.0703125 285.8828125 C-73 284 -73 284 -70 282 C-64.04605585 282.31896129 -64.04605585 282.31896129 -61.33203125 284.0859375 C-59.32585365 286.96871469 -59.4219185 290.03545683 -59.1875 293.4375 C-58.05246945 304.7711703 -53.78101308 313.30252887 -45.3515625 321.09765625 C-35.31088162 329.22026686 -23.81008537 332.32047089 -11 331 C-2.10285448 329.22280636 5.29151695 325.10102199 12 319 C12 318.34 12 317.68 12 317 C12.66 317 13.32 317 14 317 C14 316.34 14 315.68 14 315 C13.20078125 314.78085937 12.4015625 314.56171875 11.578125 314.3359375 C-5.8701419 309.29805762 -21.70719549 300.53911911 -30.98535156 284.27246094 C-37.42587051 272.2988065 -43.10609385 258.95287177 -41 245 C-39.375 242.375 -39.375 242.375 -37 241 C-34 240.5 -34 240.5 -31 241 C-27.88594497 243.29276579 -27.0815064 244.55119896 -26.3828125 248.3984375 C-26.29773438 249.71070313 -26.21265625 251.02296875 -26.125 252.375 C-24.69694528 267.72175783 -17.30891638 280.11524241 -5.65234375 290.078125 C6.95368123 299.21238758 20.60590269 302.87169744 36.078125 300.53515625 C51.01969493 297.2300184 63.35492528 289.3450581 71.9375 276.5625 C79.35688078 264.00115029 82.12267151 249.91659632 79.31640625 235.484375 C75.96208059 223.73727599 70.52610943 214.26079093 59.98046875 207.75390625 C54.25922309 204.85613247 48.47628466 204.24543759 42.13671875 203.6875 C38.50751712 202.89205855 37.22509872 201.93088063 35 199 C34.41109375 195.46656253 34.57791919 193.72904866 36.375 190.625 C42.04320401 187.1161118 48.79297853 188.79571941 55 190.1875 C64.78303707 192.90223024 71.57948517 197.04014293 78.87109375 204.109375 C80.94389263 206.19990886 80.94389263 206.19990886 84 207 C84.474375 205.783125 84.94875 204.56625 85.4375 203.3125 C85.70433594 202.62800781 85.97117187 201.94351563 86.24609375 201.23828125 C89.37885982 191.93737473 89.08039314 181.83238734 85.421875 172.765625 C83.22683654 168.49615458 80.48009166 164.66406421 77.609375 160.82421875 C75.70504148 157.48239075 75.50825924 155.79132125 76 152 C77.09375 149.1328125 77.09375 149.1328125 78.5 146.125 C82.27523275 136.7030516 82.62060561 126.82073322 79.375 117.125 C78.62956063 115.39599479 77.83784604 113.68616515 77 112 C76.5875 111.14921875 76.175 110.2984375 75.75 109.421875 C71.57093497 101.68110681 65.32492348 95.18592781 57.5 91.0625 C53.56403664 87.81533023 53.70417204 83.86884667 53 79 C50.15110278 64.42150526 44.25366336 51.95611457 32.15234375 42.859375 C27.73662146 39.93537047 24.22537996 37.93871387 19 37 C19.01047363 37.63389648 19.02094727 38.26779297 19.03173828 38.92089844 C19.31121031 58.39903768 18.94244059 75.60936292 7 92 C4.12529507 93.43735246 2.18105412 93.38172649 -1 93 C-3.4375 90.9375 -3.4375 90.9375 -5 88 C-5.1090555 82.43816973 -2.81539252 78.21622603 -0.25390625 73.4296875 C5.56015032 62.16382087 5.86662706 47.24417981 2.4375 35.125 C-2.87992053 20.39555984 -11.94510846 8.93984621 -25.8203125 1.47265625 C-46.1983341 -7.96532181 -66.79444302 -5.98833324 -85 7 Z " fill="#353131" transform="translate(400,52)"/>
<path d="M0 0 C2.26415654 2.23788571 2.94709622 3.57297735 3.34057617 6.74902344 C3.3170105 8.28864746 3.3170105 8.28864746 3.29296875 9.859375 C3.2784668 11.53193359 3.2784668 11.53193359 3.26367188 13.23828125 C3.23853516 14.39714844 3.21339844 15.55601562 3.1875 16.75 C3.16719727 18.51150391 3.16719727 18.51150391 3.14648438 20.30859375 C3.11115106 23.20592517 3.0573449 26.10302065 3 29 C7.29 29 11.58 29 16 29 C15.94199219 27.25332031 15.88398438 25.50664062 15.82421875 23.70703125 C15.77731772 21.40888089 15.73181794 19.11070163 15.6875 16.8125 C15.64560547 15.66201172 15.60371094 14.51152344 15.56054688 13.32617188 C15.42238536 3.79302759 15.42238536 3.79302759 18.33203125 0.73828125 C21.63481243 -1.413604 23.1352999 -1.80514585 27 -1 C29.66796875 0.76953125 29.66796875 0.76953125 32 4 C32.62079045 8.11944745 32.47030401 12.158613 32.3125 16.3125 C32.28994141 17.43462891 32.26738281 18.55675781 32.24414062 19.71289062 C32.1853546 22.47583359 32.09567823 25.23808847 32 28 C36.29 28 40.58 28 45 28 C44.94199219 26.32550781 44.88398438 24.65101563 44.82421875 22.92578125 C44.77731664 20.72138205 44.73181697 18.51695269 44.6875 16.3125 C44.64560547 15.20970703 44.60371094 14.10691406 44.56054688 12.97070312 C44.43712652 4.80027589 44.43712652 4.80027589 47.296875 0.734375 C50 -1 50 -1 53.5625 -1.0625 C57.31709439 0.09801099 58.59405448 0.96043256 61 4 C61.45410156 6.65722656 61.45410156 6.65722656 61.390625 9.640625 C61.37773437 10.71054688 61.36484375 11.78046875 61.3515625 12.8828125 C61.31804687 13.99398437 61.28453125 15.10515625 61.25 16.25 C61.23195313 17.37664062 61.21390625 18.50328125 61.1953125 19.6640625 C61.14821065 22.44307179 61.07646852 25.22164369 61 28 C65.29 28 69.58 28 74 28 C73.94199219 26.32550781 73.88398438 24.65101563 73.82421875 22.92578125 C73.77731664 20.72138205 73.73181697 18.51695269 73.6875 16.3125 C73.64560547 15.20970703 73.60371094 14.10691406 73.56054688 12.97070312 C73.43712652 4.80027589 73.43712652 4.80027589 76.296875 0.734375 C79 -1 79 -1 82.5625 -1.0625 C86.31709439 0.09801099 87.59405448 0.96043256 90 4 C90.45410156 6.65722656 90.45410156 6.65722656 90.390625 9.640625 C90.37773437 10.71054688 90.36484375 11.78046875 90.3515625 12.8828125 C90.30128906 14.54957031 90.30128906 14.54957031 90.25 16.25 C90.23195313 17.37664062 90.21390625 18.50328125 90.1953125 19.6640625 C90.14820222 22.44356896 90.08243361 25.2213534 90 28 C90.94101562 28.13019531 91.88203125 28.26039063 92.8515625 28.39453125 C96.59580011 29.11457694 97.81928503 29.89667486 100 33 C100.06456261 34.99895765 100.07109048 37.00126386 100 39 C100.73637695 38.97905273 101.47275391 38.95810547 102.23144531 38.93652344 C105.57082442 38.85332856 108.90998549 38.80132843 112.25 38.75 C113.40886719 38.71648437 114.56773437 38.68296875 115.76171875 38.6484375 C116.87675781 38.63554687 117.99179687 38.62265625 119.140625 38.609375 C120.16704102 38.58842773 121.19345703 38.56748047 122.25097656 38.54589844 C125.73773845 39.12186443 126.88652257 40.21467227 129 43 C129.5 46.5 129.5 46.5 129 50 C127.13291495 52.36497439 125.67938569 53.66030715 123 55 C121.2595583 55.08449628 119.51590278 55.10723024 117.7734375 55.09765625 C116.7421875 55.09443359 115.7109375 55.09121094 114.6484375 55.08789062 C113.56820312 55.07951172 112.48796875 55.07113281 111.375 55.0625 C109.74304688 55.05573242 109.74304688 55.05573242 108.078125 55.04882812 C105.38539338 55.0370179 102.69268991 55.01908205 100 55 C100 58.96 100 62.92 100 67 C101.61390625 66.97679687 103.2278125 66.95359375 104.890625 66.9296875 C107.01041204 66.91092832 109.13020409 66.89272828 111.25 66.875 C112.31347656 66.85824219 113.37695312 66.84148437 114.47265625 66.82421875 C116.00986328 66.81455078 116.00986328 66.81455078 117.578125 66.8046875 C118.52075195 66.79421387 119.46337891 66.78374023 120.43457031 66.77294922 C123.1655208 67.01464925 124.71921031 67.49921793 127 69 C129.48038907 72.7205836 129.46337203 74.59796571 129 79 C126.89397626 81.79355299 125.73861107 82.87799142 122.25097656 83.45410156 C120.71135254 83.42268066 120.71135254 83.42268066 119.140625 83.390625 C118.02558594 83.37773437 116.91054688 83.36484375 115.76171875 83.3515625 C114.60285156 83.31804687 113.44398438 83.28453125 112.25 83.25 C111.07566406 83.23195313 109.90132812 83.21390625 108.69140625 83.1953125 C105.79392243 83.14819894 102.89685805 83.07645666 100 83 C100 87.29 100 91.58 100 96 C101.60230469 95.96519531 103.20460938 95.93039063 104.85546875 95.89453125 C106.96613534 95.86638903 109.07681328 95.83908933 111.1875 95.8125 C112.24259766 95.78736328 113.29769531 95.76222656 114.38476562 95.73632812 C115.40634766 95.72666016 116.42792969 95.71699219 117.48046875 95.70703125 C118.88655396 95.68346558 118.88655396 95.68346558 120.32104492 95.65942383 C123.53256353 96.06770492 125.39378631 97.11169302 128 99 C129.42662219 101.85324437 129.31033868 103.83454549 129 107 C127.77734375 109.6796875 127.77734375 109.6796875 125 112 C120.73990244 112.63782771 116.5452259 112.46777791 112.25 112.3125 C111.07566406 112.28994141 109.90132812 112.26738281 108.69140625 112.24414062 C105.79372655 112.1852447 102.89670219 112.09556569 100 112 C100 116.29 100 120.58 100 125 C101.60230469 124.96519531 103.20460938 124.93039063 104.85546875 124.89453125 C106.96613534 124.86638903 109.07681328 124.83908933 111.1875 124.8125 C112.24259766 124.78736328 113.29769531 124.76222656 114.38476562 124.73632812 C115.40634766 124.72666016 116.42792969 124.71699219 117.48046875 124.70703125 C118.88655396 124.68346558 118.88655396 124.68346558 120.32104492 124.65942383 C123.53256353 125.06770492 125.39378631 126.11169302 128 128 C129.44430855 130.88861709 129.37688506 132.79647701 129 136 C127.24609375 138.6796875 127.24609375 138.6796875 124 141 C119.88026185 141.61947255 115.84152138 141.47030911 111.6875 141.3125 C110.00430664 141.27866211 110.00430664 141.27866211 108.28710938 141.24414062 C105.52337464 141.18533776 102.76237446 141.10320401 100 141 C99.87109375 142.11503906 99.7421875 143.23007812 99.609375 144.37890625 C99 148 99 148 97.25 149.9375 C94.64304845 151.16856045 92.8478043 151.08015343 90 151 C90.02094727 151.70084717 90.04189453 152.40169434 90.06347656 153.1237793 C90.14683048 156.31153919 90.19872139 159.49906952 90.25 162.6875 C90.28351563 163.79029297 90.31703125 164.89308594 90.3515625 166.02929688 C90.45001962 174.1766234 90.45001962 174.1766234 88.234375 178.23046875 C85.90449477 180.07563614 84.93267413 180.68227879 82 180.625 C81.34 180.63789063 80.68 180.65078125 80 180.6640625 C76.58560773 179.53037757 75.73384318 178.17231927 74 175 C73.51347393 170.88417077 73.62427161 166.82444752 73.75 162.6875 C73.76804687 161.56537109 73.78609375 160.44324219 73.8046875 159.28710938 C73.85171281 156.52437268 73.92345285 153.76207638 74 151 C69.71 151 65.42 151 61 151 C61.04640625 152.67449219 61.0928125 154.34898437 61.140625 156.07421875 C61.17814686 158.27862799 61.21454657 160.48305653 61.25 162.6875 C61.28351563 163.79029297 61.31703125 164.89308594 61.3515625 166.02929688 C61.45001962 174.1766234 61.45001962 174.1766234 59.234375 178.23046875 C56.90449477 180.07563614 55.93267413 180.68227879 53 180.625 C52.34 180.63789063 51.68 180.65078125 51 180.6640625 C47.58560773 179.53037757 46.73384318 178.17231927 45 175 C44.51347393 170.88417077 44.62427161 166.82444752 44.75 162.6875 C44.76804687 161.56537109 44.78609375 160.44324219 44.8046875 159.28710938 C44.85171281 156.52437268 44.92345285 153.76207638 45 151 C40.71 151 36.42 151 32 151 C32.04640625 152.67449219 32.0928125 154.34898437 32.140625 156.07421875 C32.17814686 158.27862799 32.21454657 160.48305653 32.25 162.6875 C32.28351563 163.79029297 32.31703125 164.89308594 32.3515625 166.02929688 C32.45001962 174.1766234 32.45001962 174.1766234 30.234375 178.23046875 C27.90449477 180.07563614 26.93267413 180.68227879 24 180.625 C23.34 180.63789063 22.68 180.65078125 22 180.6640625 C18.58560773 179.53037757 17.73384318 178.17231927 16 175 C15.51347393 170.88417077 15.62427161 166.82444752 15.75 162.6875 C15.76804687 161.56537109 15.78609375 160.44324219 15.8046875 159.28710938 C15.85171281 156.52437268 15.92345285 153.76207638 16 151 C11.71 151 7.42 151 3 151 C3.04640625 152.75828125 3.0928125 154.5165625 3.140625 156.328125 C3.17814166 158.6353997 3.21454193 160.94269274 3.25 163.25 C3.28351563 164.40886719 3.31703125 165.56773437 3.3515625 166.76171875 C3.36445313 167.87675781 3.37734375 168.99179687 3.390625 170.140625 C3.41157227 171.16704102 3.43251953 172.19345703 3.45410156 173.25097656 C2.88313608 176.70746653 1.70452211 177.85090451 -1 180 C-3 180.56640625 -3 180.56640625 -5 180.5625 C-5.99 180.59537109 -5.99 180.59537109 -7 180.62890625 C-10.43482912 179.5488135 -11.26954568 178.1699473 -13 175 C-13.4864827 170.88415994 -13.37572863 166.82445559 -13.25 162.6875 C-13.23195312 161.56537109 -13.21390625 160.44324219 -13.1953125 159.28710938 C-13.14827856 156.52386553 -13.08256317 153.76237302 -13 151 C-14.67255859 150.80664062 -14.67255859 150.80664062 -16.37890625 150.609375 C-20 150 -20 150 -21.9375 148.25 C-23.16856045 145.64304845 -23.08015343 143.8478043 -23 141 C-23.70084717 141.02618408 -24.40169434 141.05236816 -25.1237793 141.0793457 C-28.3114565 141.1835354 -31.49877526 141.24839583 -34.6875 141.3125 C-36.34168945 141.3753418 -36.34168945 141.3753418 -38.02929688 141.43945312 C-46.21985289 141.56317754 -46.21985289 141.56317754 -50.23046875 138.66796875 C-52 136 -52 136 -52.625 133 C-51.7379745 128.74227758 -50.54641595 127.56010922 -47 125 C-42.88055255 124.37920955 -38.841387 124.52969599 -34.6875 124.6875 C-33.56537109 124.71005859 -32.44324219 124.73261719 -31.28710938 124.75585938 C-28.52416641 124.8146454 -25.76191153 124.90432177 -23 125 C-23 120.71 -23 116.42 -23 112 C-24.75828125 112.05800781 -26.5165625 112.11601562 -28.328125 112.17578125 C-30.63539016 112.22267688 -32.94268398 112.26817724 -35.25 112.3125 C-36.40886719 112.35439453 -37.56773437 112.39628906 -38.76171875 112.43945312 C-47.33289278 112.56331402 -47.33289278 112.56331402 -50.76171875 109.66796875 C-52.29024413 106.3746475 -52.67235484 104.58589249 -52 101 C-50.234375 98.33203125 -50.234375 98.33203125 -47 96 C-42.8805351 95.37926389 -38.84139989 95.5296955 -34.6875 95.6875 C-33.56537109 95.71005859 -32.44324219 95.73261719 -31.28710938 95.75585938 C-28.52416641 95.8146454 -25.76191153 95.90432177 -23 96 C-23 91.71 -23 87.42 -23 83 C-24.75828125 83.05800781 -26.5165625 83.11601562 -28.328125 83.17578125 C-30.63539016 83.22267688 -32.94268398 83.26817724 -35.25 83.3125 C-36.40886719 83.35439453 -37.56773437 83.39628906 -38.76171875 83.43945312 C-47.3338205 83.56332743 -47.3338205 83.56332743 -50.7578125 80.66796875 C-52.30510304 77.34470008 -52.7531134 75.6149443 -52 72 C-49.24707591 68.80230076 -47.56537795 67.23689867 -43.35107422 66.59912109 C-40.26145423 66.50814528 -37.21336578 66.5638893 -34.125 66.6875 C-33.05507812 66.71005859 -31.98515625 66.73261719 -30.8828125 66.75585938 C-28.25460308 66.81452476 -25.62711786 66.90419748 -23 67 C-23 63.04 -23 59.08 -23 55 C-25.40345703 55.06960937 -25.40345703 55.06960937 -27.85546875 55.140625 C-29.96612718 55.17814782 -32.07680578 55.21454743 -34.1875 55.25 C-35.77014648 55.30027344 -35.77014648 55.30027344 -37.38476562 55.3515625 C-45.24290413 55.45071882 -45.24290413 55.45071882 -49.17578125 53.109375 C-51.38372306 50.55629454 -51.94590719 49.49765383 -52.3125 46.125 C-52 43 -52 43 -50.34667969 40.82910156 C-47.38869732 38.52352479 -45.85541694 38.53356292 -42.140625 38.609375 C-41.02558594 38.62226563 -39.91054687 38.63515625 -38.76171875 38.6484375 C-37.02341797 38.69871094 -37.02341797 38.69871094 -35.25 38.75 C-33.48849609 38.77707031 -33.48849609 38.77707031 -31.69140625 38.8046875 C-28.7934466 38.8518088 -25.89713582 38.91758695 -23 39 C-22.88269531 37.89527344 -22.76539063 36.79054687 -22.64453125 35.65234375 C-22 32 -22 32 -19.6875 29.5625 C-17 28 -17 28 -13 28 C-13.02094727 27.3294458 -13.04189453 26.6588916 -13.06347656 25.96801758 C-13.14686027 22.9163322 -13.19873016 19.86488683 -13.25 16.8125 C-13.28351563 15.75740234 -13.31703125 14.70230469 -13.3515625 13.61523438 C-13.45071882 5.75709587 -13.45071882 5.75709587 -11.109375 1.82421875 C-7.22703163 -1.53328931 -4.96680119 -1.13277922 0 0 Z " fill="#363131" transform="translate(258,115)"/>
<path d="M0 0 C30.03 0 60.06 0 91 0 C91 30.03 91 60.06 91 91 C60.97 91 30.94 91 0 91 C0 60.97 0 30.94 0 0 Z " fill="#8C9BA7" transform="translate(251,159)"/>
<path d="M0 0 C1.60546875 1.63671875 1.60546875 1.63671875 3.1875 3.6875 C9.98969595 11.74349054 19.34235231 17.14174496 29.97021484 18.1953125 C43.30329988 18.9491265 56.54606005 16.87000965 67 8 C67.99 8 68.98 8 70 8 C70.40089844 8.82242187 70.80179687 9.64484375 71.21484375 10.4921875 C77.61963269 23.06939208 85.71076232 33.20700235 99.09716797 38.89038086 C106.62648075 42.36747597 109.42139418 47.74820975 113.125 54.9375 C113.72393066 56.05962891 114.32286133 57.18175781 114.93994141 58.33789062 C116.11747939 60.55390496 117.28437036 62.77561658 118.43945312 65.00341797 C119.74226587 67.50509564 121.08025533 69.97786789 122.453125 72.44140625 C125.77399197 78.5000568 128.66338139 83.99284218 127 91 C124.58731489 98.3592958 121.32661244 103.89755772 114.5 107.8125 C107.94185061 110.85494044 101.29704146 111.53187581 94.4140625 109.078125 C85.05422827 104.2893726 80.92711573 95.72594899 75.9375 86.875 C74.61205309 84.54997935 73.2854497 82.22566325 71.95703125 79.90234375 C71.62576233 79.32184769 71.29449341 78.74135162 70.95318604 78.14326477 C67.74631735 72.53291225 64.45321569 66.97651047 61.125 61.4375 C60.61960693 60.59364746 60.11421387 59.74979492 59.59350586 58.88037109 C57.56380782 55.24013585 57.56380782 55.24013585 55 52 C53.5653041 51.90105545 52.12559603 51.87029265 50.6875 51.875 C49.90761719 51.87242187 49.12773437 51.86984375 48.32421875 51.8671875 C46.0387443 51.92519134 46.0387443 51.92519134 44.03125 52.4921875 C36.71061369 54.32234658 28.69976231 53.37389464 22 50 C18.75729744 47.9154055 15.88340989 45.55359178 13 43 C12.24589844 42.35160156 11.49179687 41.70320313 10.71484375 41.03515625 C0.74759988 31.85435014 -5.641809 19.04528043 -9 6 C-9.125 2.59375 -9.125 2.59375 -9 0 C-5.60782921 -0.8480427 -3.29991529 -1.23349435 0 0 Z " fill="#FB4654" transform="translate(259,354)"/>
<path d="M0 0 C0.89110474 -0.00241196 1.78220947 -0.00482391 2.70031738 -0.00730896 C4.57971661 -0.00633178 6.45914507 0.00703114 8.33837891 0.03198242 C11.2096568 0.06629758 14.07785638 0.05263414 16.94921875 0.03320312 C18.77865889 0.04010187 20.60809111 0.04977452 22.4375 0.0625 C23.72049988 0.0550602 23.72049988 0.0550602 25.02941895 0.04747009 C28.79735634 0.12165602 31.31475039 0.43866476 34.75952148 2.06079102 C37.73614706 5.96248876 37.41757482 9.49999606 37.34765625 14.28515625 C37.35006821 15.2244397 37.35248016 16.16372314 37.35496521 17.13146973 C37.35398674 19.11519599 37.34059305 21.09894955 37.31567383 23.08251953 C37.28136808 26.11845684 37.29501356 29.15148312 37.31445312 32.1875 C37.30755455 34.1158978 37.29788206 36.0442881 37.28515625 37.97265625 C37.29011612 38.8800354 37.29507599 39.78741455 37.30018616 40.72229004 C37.1826851 47.01182809 37.1826851 47.01182809 34.80834961 50.16992188 C30.66196941 53.06497598 27.04499487 52.79029062 22.1328125 52.796875 C21.27948334 52.8002034 20.42615417 52.8035318 19.54696655 52.80696106 C17.73964986 52.81202869 15.93232379 52.81436944 14.125 52.81420898 C11.36182174 52.81639197 8.5990449 52.83453959 5.8359375 52.85351562 C4.08073053 52.85645028 2.32552167 52.85843459 0.5703125 52.859375 C-0.25584564 52.86656052 -1.08200378 52.87374603 -1.93319702 52.88114929 C-9.30281957 52.8518572 -9.30281957 52.8518572 -12.28125 50.62890625 C-14.30898588 47.58730243 -14.53731623 46.93880861 -14.58764648 43.51220703 C-14.60363388 42.6877005 -14.61962128 41.86319397 -14.63609314 41.01370239 C-14.64145584 40.12617279 -14.64681854 39.23864319 -14.65234375 38.32421875 C-14.66137222 37.40808807 -14.6704007 36.4919574 -14.67970276 35.54806519 C-14.69421085 33.60971345 -14.70309338 31.67131267 -14.70678711 29.73291016 C-14.71867887 26.77161855 -14.76785392 23.81241394 -14.81835938 20.8515625 C-14.82782427 18.96745808 -14.83505899 17.08334087 -14.83984375 15.19921875 C-14.85937607 14.31573761 -14.87890839 13.43225647 -14.89903259 12.52200317 C-14.86843009 8.33871524 -14.62214261 6.16231995 -12.32641602 2.57006836 C-8.13518321 -0.10166194 -4.87803128 -0.07561259 0 0 Z " fill="#373333" transform="translate(285.28125,178.37109375)"/>
<path d="M0 0 C1.88671875 1.63671875 1.88671875 1.63671875 3.6875 3.6875 C4.28949219 4.35136719 4.89148438 5.01523437 5.51171875 5.69921875 C7.31765895 8.49107906 7.47755676 10.72870154 8 14 C13.16241462 26.00969041 20.56637001 38.23559529 32.71875 44.140625 C44.2372481 48.47978524 54.39925175 47.29767463 66 44 C66.25990723 44.48017578 66.51981445 44.96035156 66.78759766 45.45507812 C72.48513836 55.95613711 78.29573237 66.39223922 84.25 76.75 C84.81541504 77.74837891 85.38083008 78.74675781 85.96337891 79.77539062 C91.62381756 89.55056444 97.89121419 98.2970714 109 102 C110.89212737 102.22179785 112.78884472 102.40614015 114.6875 102.5625 C116.17830078 102.68818359 116.17830078 102.68818359 117.69921875 102.81640625 C118.45847656 102.87699219 119.21773437 102.93757813 120 103 C116.07821059 107.54927572 112.05715448 109.60827547 106.1953125 110.359375 C99.04507103 110.68686698 93.59638969 109.61890128 88 105 C82.88958846 99.64787981 79.55358347 93.28947599 75.9375 86.875 C74.61205309 84.54997935 73.2854497 82.22566325 71.95703125 79.90234375 C71.62576233 79.32184769 71.29449341 78.74135162 70.95318604 78.14326477 C67.74631735 72.53291225 64.45321569 66.97651047 61.125 61.4375 C60.61960693 60.59364746 60.11421387 59.74979492 59.59350586 58.88037109 C57.56380782 55.24013585 57.56380782 55.24013585 55 52 C53.5653041 51.90105545 52.12559603 51.87029265 50.6875 51.875 C49.90761719 51.87242187 49.12773437 51.86984375 48.32421875 51.8671875 C46.0387443 51.92519134 46.0387443 51.92519134 44.03125 52.4921875 C36.71061369 54.32234658 28.69976231 53.37389464 22 50 C18.75729744 47.9154055 15.88340989 45.55359178 13 43 C12.24589844 42.35160156 11.49179687 41.70320313 10.71484375 41.03515625 C0.74759988 31.85435014 -5.641809 19.04528043 -9 6 C-9.125 2.59375 -9.125 2.59375 -9 0 C-5.59811397 -0.85047151 -3.31077259 -1.21876638 0 0 Z " fill="#E83241" transform="translate(259,354)"/>
<path d="M0 0 C0.96679688 -0.00322266 1.93359375 -0.00644531 2.9296875 -0.00976562 C8.52999601 0.03266095 12.77901689 0.36599383 17.5625 3.5 C19.54363411 6.52383627 19.23386973 8.80444447 18.75 12.3125 C16.859375 15.03125 16.859375 15.03125 13.75 17.3125 C10.31043262 17.85143571 6.96566175 17.64650905 3.5 17.4375 C-7.78969103 16.84161046 -16.43006721 18.9210309 -25.25 26.3125 C-29.08521141 30.49864579 -31.98540731 35.10393681 -34.25 40.3125 C-34.641875 41.17875 -35.03375 42.045 -35.4375 42.9375 C-36.98699758 49.37387458 -37.01750497 56.23865611 -35.1875 62.625 C-34.01046557 67.25466875 -33.97648479 70.99020757 -36.3125 75.25 C-39.44027986 76.96523412 -42.83705202 77.14444701 -46.25 76.3125 C-51.27336637 72.25903679 -52.24225952 67.47494181 -53.25 61.3125 C-54.58525788 45.5789794 -51.17096018 30.78684135 -40.83984375 18.4296875 C-29.34978031 6.29485791 -16.68007856 -0.28252166 0 0 Z " fill="#373132" transform="translate(169.25,156.6875)"/>
<path d="M0 0 C30.03 0 60.06 0 91 0 C91 30.03 91 60.06 91 91 C60.97 91 30.94 91 0 91 C0 60.97 0 30.94 0 0 Z M1 1 C1 30.04 1 59.08 1 89 C14.963125 89.061875 28.92625 89.12375 43.3125 89.1875 C49.92792847 89.22846802 49.92792847 89.22846802 56.67700195 89.27026367 C60.62739974 89.28029644 60.62739974 89.28029644 64.57780457 89.28633118 C66.33852918 89.29094054 68.09924427 89.30149719 69.85990906 89.31672668 C72.52567011 89.33863415 75.19085209 89.34171982 77.85668945 89.34057617 C79.03496418 89.35676766 79.03496418 89.35676766 80.23704243 89.37328625 C83.08088925 89.35691462 85.4248815 89.29291026 87.9876709 87.9876709 C89.63884335 84.74565462 89.38940164 81.40977957 89.34057617 77.85668945 C89.34111858 76.59234337 89.34111858 76.59234337 89.34167194 75.30245495 C89.33943174 72.57248924 89.31658161 69.84313711 89.29296875 67.11328125 C89.28855822 65.4285105 89.28549749 63.74373565 89.28381348 62.05895996 C89.26808107 55.81007731 89.22619745 49.56128264 89.1875 43.3125 C89.125625 29.349375 89.06375 15.38625 89 1 C59.96 1 30.92 1 1 1 Z " fill="#7D8C9B" transform="translate(251,159)"/>
<path d="M0 0 C6.27 0 12.54 0 19 0 C19 6.27 19 12.54 19 19 C12.73 19 6.46 19 0 19 C0 12.73 0 6.46 0 0 Z " fill="#FDDF76" transform="translate(287,195)"/>
</svg>
