<?xml version="1.0" encoding="UTF-8"?>
<svg version="1.1" xmlns="http://www.w3.org/2000/svg" width="512" height="512">
<path d="M0 0 C12.07500469 6.67978983 18.72052199 16.65811217 26 28 C26.89886635 29.38598339 27.79861027 30.77139801 28.69921875 32.15625 C31.01294353 35.71796131 33.31683663 39.28591154 35.61767578 42.85595703 C37.86642444 46.34386072 40.12073777 49.82815835 42.375 53.3125 C42.82496338 54.00875488 43.27492676 54.70500977 43.73852539 55.42236328 C46.19049828 59.21409174 48.65163854 62.9995278 51.125 66.77734375 C56.69096187 75.28796048 62.17315294 83.83735045 67.5 92.5 C75.83585218 106.05220634 84.53930134 119.354368 93.40527344 132.56445312 C96.77038797 137.60257269 99.98515127 142.7271162 103.17822266 147.87548828 C107.59594165 154.98899834 112.15896642 162.00601224 116.72119141 169.02734375 C118.57469401 171.88650775 120.41196173 174.75586709 122.25 177.625 C125.59236563 182.83918263 128.97492833 188.02643417 132.36499023 193.2097168 C137.70307513 201.37176036 143.0065682 209.5496662 148.1875 217.8125 C151.95188203 223.81317329 155.79800211 229.7462297 159.75 235.625 C167.36358786 246.95647042 174.67183035 258.48274775 182 270 C182.60102539 270.94423828 183.20205078 271.88847656 183.82128906 272.86132812 C186.11558499 276.46610129 188.40957082 280.07106938 190.70166016 283.67724609 C194.51079068 289.66827426 198.33552538 295.64912309 202.16723633 301.62573242 C212.70441122 318.06451576 212.70441122 318.06451576 217.8125 326.1875 C218.20276367 326.80415527 218.59302734 327.42081055 218.99511719 328.05615234 C226.32963894 339.77623045 228.85649148 351.51616012 225.75 365.0625 C222.34542734 377.41578886 215.3865093 386.98000986 204.30078125 393.7578125 C191.39264397 400.72689171 177.94629774 401.29442783 163.55914104 401.15740526 C160.73537698 401.13066299 157.91175758 401.11669081 155.08789158 401.1051836 C150.62747946 401.08629302 146.16712219 401.0625444 141.70674515 401.03671646 C133.15735993 400.99150554 124.60804737 400.98126475 116.05856323 400.97396851 C115.26108697 400.97325186 114.46361072 400.97253522 113.64196851 400.97179686 C110.31242302 400.9688091 106.98287749 400.96587778 103.65333183 400.96308839 C93.77449167 400.95457887 83.89566198 400.93985052 74.01683044 400.92448425 C73.08220037 400.92304083 72.14757029 400.9215974 71.18461809 400.92011023 C44.95490238 400.8793157 18.72520649 400.82675926 -7.50448132 400.77101372 C-12.80254788 400.75975564 -18.10061468 400.74861519 -23.39868164 400.73754883 C-24.45268889 400.73534514 -25.50669615 400.73314146 -26.59264302 400.730871 C-43.76969493 400.69527305 -60.94674663 400.67051705 -78.12382204 400.64965298 C-95.85296816 400.62788702 -113.58206727 400.59486092 -131.31117338 400.55129844 C-142.20294459 400.52488216 -153.09465749 400.50711337 -163.98645913 400.50065396 C-171.42752465 400.4953958 -178.86851602 400.47916469 -186.30954177 400.45433434 C-190.59481615 400.44035369 -194.8799579 400.43113622 -199.1652565 400.43499184 C-203.09265031 400.43841857 -207.0197613 400.42794361 -210.94709723 400.40676448 C-212.36115523 400.40152658 -213.77524283 400.40122987 -215.18930031 400.40660437 C-231.98588752 400.4639094 -242.12103731 397.2400248 -254.35546875 385.796875 C-262.63241665 377.16276049 -267.01288735 366.18867773 -266.99609375 354.21484375 C-265.86934455 337.16976545 -256.63389392 324.19291642 -247.53710938 310.34179688 C-244.90978872 306.3390555 -242.2984591 302.32592616 -239.6875 298.3125 C-239.14665771 297.48177979 -238.60581543 296.65105957 -238.04858398 295.79516602 C-233.39820252 288.64026002 -228.81810171 281.4417866 -224.24658203 274.23632812 C-219.6826183 267.0511088 -215.05828731 259.90680721 -210.40893555 252.77661133 C-207.68390803 248.59627181 -204.97630635 244.40726801 -202.3125 240.1875 C-199.713448 236.07870457 -197.02335039 232.03546448 -194.3125 228 C-187.39190636 217.68095994 -180.8057862 207.14670842 -174.26171875 196.5859375 C-173.82666016 195.88525146 -173.39160156 195.18456543 -172.94335938 194.46264648 C-172.14633731 193.17740193 -171.35176985 191.89062934 -170.56054688 190.60180664 C-168.36230206 187.05477058 -166.04674077 183.62319697 -163.6328125 180.21875 C-159.92689884 174.96460123 -156.54998923 169.54050538 -153.1875 164.0625 C-147.60288243 155.03118154 -141.81500968 146.17406493 -135.875 137.375 C-129.67133617 128.1847459 -123.83468809 118.84569619 -118.28222656 109.24633789 C-115.04836403 103.68182459 -111.65123269 98.47748245 -107.75390625 93.3515625 C-105.25662822 90.0033189 -103.06357436 86.48762101 -100.84765625 82.94921875 C-98.75880764 79.61501007 -96.63204897 76.30666868 -94.5 73 C-91.86258509 68.90360133 -89.23461195 64.80169682 -86.625 60.6875 C-83.13419983 55.19151926 -79.59247424 49.72901369 -76.05175781 44.26513672 C-73.47757362 40.29047585 -70.91392384 36.30982893 -68.375 32.3125 C-67.84003906 31.47074219 -67.30507812 30.62898438 -66.75390625 29.76171875 C-65.80124985 28.26165622 -64.848869 26.76141792 -63.89794922 25.26025391 C-62.70563854 23.3800149 -61.50933814 21.50235962 -60.3125 19.625 C-59.94366699 19.04145752 -59.57483398 18.45791504 -59.19482422 17.85668945 C-46.29998782 -2.32387505 -21.7181386 -10.71804243 0 0 Z M-49.77734375 96.921875 C-54.9062283 103.39254598 -57.37697348 109.27092822 -57.3984375 117.55859375 C-57.40248596 118.30747864 -57.40653442 119.05636353 -57.41070557 119.82794189 C-57.41677697 122.36482792 -57.39731391 124.90071313 -57.375 127.4375 C-57.37167664 128.32740631 -57.36835327 129.21731262 -57.3649292 130.13418579 C-57.28252674 149.52432888 -56.51263816 168.90010365 -55.7232132 188.27190018 C-55.62566277 190.67119886 -55.52991202 193.07056496 -55.43426514 195.46994019 C-55.27956142 199.31924343 -55.11629848 203.16810306 -54.94667816 207.01677704 C-54.88469427 208.43900572 -54.82468539 209.86132228 -54.76694489 211.28372955 C-54.11949198 237.752921 -54.11949198 237.752921 -40 259 C-33.03892955 264.01844614 -23.42622878 265.75234186 -15 265 C-4.7529 262.75383568 3.06869509 257.79390305 9.26171875 249.26171875 C15.02619582 239.25424369 14.35583935 225.58564132 14.81640625 214.375 C14.87778712 212.9947546 14.93967008 211.61453145 15.00201416 210.23432922 C15.16503523 206.57658372 15.31862256 202.9185073 15.46912003 199.2602272 C15.56301014 196.98765224 15.65906122 194.71517785 15.75570679 192.44271851 C16.53616005 174.04218066 17.27094369 155.63829334 17.73825073 137.22680664 C17.78725902 135.30321605 17.83953939 133.37970569 17.89529419 131.45629883 C17.96941312 128.82124411 18.02835484 126.18632191 18.08203125 123.55078125 C18.10469055 122.8069368 18.12734985 122.06309235 18.1506958 121.29670715 C18.29288765 111.87447375 16.16932663 104.2261706 10 97 C2.01376048 89.25808138 -6.18775279 85.65233479 -17.3125 85.5625 C-29.51715756 85.75454072 -41.14656903 87.58925706 -49.77734375 96.921875 Z M-45.46875 293.33203125 C-52.53112913 301.02497995 -54.49224829 309.19099264 -54.30859375 319.46484375 C-53.53606631 328.31468346 -49.27106903 335.78820383 -43 342 C-32.91141616 349.39933113 -22.7500154 350.39945016 -10.5234375 348.64453125 C-3.44635281 346.47480776 2.80462577 340.42839264 6.7109375 334.328125 C10.96071287 326.02509566 12.71644566 317.5112993 10.28125 308.2734375 C6.41819773 298.21080941 1.25728952 290.36039622 -8.375 285.1875 C-22.01846856 280.71808788 -34.84686351 283.58695143 -45.46875 293.33203125 Z " fill="#FA2045" transform="translate(276,58)"/>
<path d="M0 0 C3.13980141 1.91508972 4.43203731 3.08555596 6.5 6.1875 C2.64340838 4.74127814 -0.97762994 2.97432503 -4.6328125 1.08984375 C-14.4384124 -3.64884574 -29.63356739 -1.2375616 -39.5 2.1875 C-40.40234375 2.73792969 -41.3046875 3.28835937 -42.234375 3.85546875 C-43.35585937 4.51482422 -43.35585937 4.51482422 -44.5 5.1875 C-45.16 4.8575 -45.82 4.5275 -46.5 4.1875 C-34.30533109 -5.08044837 -14.00221359 -6.89840107 0 0 Z " fill="#0B0103" transform="translate(276.5,145.8125)"/>
<path d="M0 0 C1.8671875 1.66796875 1.8671875 1.66796875 3 3 C2.45472656 2.80664062 1.90945313 2.61328125 1.34765625 2.4140625 C-8.67126246 -1.04546157 -19.42265905 -4.24731075 -29.9375 -0.9375 C-33.08463549 0.02590882 -33.99813276 -0.07285742 -37 -1 C-24.04534036 -6.81531815 -12.70325404 -6.57384137 0 0 Z " fill="#190307" transform="translate(276,58)"/>
<path d="M0 0 C6.36749469 2.84067112 10.65677894 8.70308796 13.3125 15.0546875 C14.89385318 21.82934827 14.60693289 29.10496006 14 36 C13.34 36.66 12.68 37.32 12 38 C12.06960938 36.44152344 12.06960938 36.44152344 12.140625 34.8515625 C12.58059405 20.81300995 8.74792574 11.05001146 0 0 Z " fill="#130205" transform="translate(274,347)"/>
<path d="M0 0 C-1.44781793 3.44428265 -3.27694609 5.36130962 -6.125 7.75 C-7.21167969 8.67039062 -7.21167969 8.67039062 -8.3203125 9.609375 C-8.87460938 10.06828125 -9.42890625 10.5271875 -10 11 C-10 7.0234755 -8.61988497 5.9109833 -6 3 C-2.48275862 0 -2.48275862 0 0 0 Z " fill="#760F20" transform="translate(230,63)"/>
<path d="M0 0 C-2.62422797 1.74948531 -4.43261109 2.57610997 -7.375 3.5 C-10.64143983 4.54973678 -13.83346782 5.67209941 -17 7 C-13.00897473 2.14136054 -6.32919246 -2.22960189 0 0 Z " fill="#170306" transform="translate(247,144)"/>
</svg>
