<?xml version="1.0" encoding="UTF-8"?>
<svg version="1.1" xmlns="http://www.w3.org/2000/svg" width="512" height="512">
<path d="M0 0 C7.19988901 5.51044137 9.40229191 11.59447345 10.78125 20.36328125 C11.373993 26.5145848 11.54766727 32.6862976 11.6394043 38.86303711 C11.8200651 42.04745587 12.33018102 45.2057984 12.78125 48.36328125 C18.06125 48.36328125 23.34125 48.36328125 28.78125 48.36328125 C28.78125 46.38328125 28.78125 44.40328125 28.78125 42.36328125 C29.11125 41.70328125 29.44125 41.04328125 29.78125 40.36328125 C29.80649067 39.00389114 29.77128746 37.64307099 29.703125 36.28515625 C29.28576533 24.57735995 29.07517797 13.02978125 37.1484375 3.59765625 C43.86356926 -2.10123895 53.20978557 -2.19685104 61.671875 -1.984375 C67.22032489 -1.36400812 69.60998366 1.19201491 73.40625 4.98828125 C79.18820756 12.51043964 80.21037605 19.84410386 79.82421875 29.1640625 C79.78449159 32.12192992 80.17520019 34.48913594 80.78125 37.36328125 C80.90515988 41.03597016 80.82554346 44.68692414 80.78125 48.36328125 C86.06125 48.36328125 91.34125 48.36328125 96.78125 48.36328125 C96.73484375 46.19507813 96.6884375 44.026875 96.640625 41.79296875 C96.60937284 39.67808367 96.58511762 37.56322495 96.56152344 35.44824219 C96.54148668 33.98555873 96.51424896 32.52295459 96.47949219 31.06054688 C96.43061775 28.95032115 96.40820341 26.84115989 96.390625 24.73046875 C96.36967773 23.46315918 96.34873047 22.19584961 96.32714844 20.89013672 C97.17258036 14.32394877 101.49587796 10.18787613 106.3828125 6.109375 C113.14536368 1.18614963 120.06144243 -2.65535881 128.609375 -2.015625 C135.56623458 -0.80192827 140.49985707 3.98120633 144.78125 9.36328125 C148.59463977 15.2332739 149.41450137 20.45388498 149.53125 27.36328125 C149.57572266 28.66845703 149.57572266 28.66845703 149.62109375 30 C149.69100408 32.12061341 149.73848116 34.24194688 149.78125 36.36328125 C150.44511719 36.08613281 151.10898437 35.80898438 151.79296875 35.5234375 C153.11748047 34.98009766 153.11748047 34.98009766 154.46875 34.42578125 C155.77392578 33.88630859 155.77392578 33.88630859 157.10546875 33.3359375 C167.84923422 29.43053954 180.11200632 30.87242272 190.78125 34.36328125 C194.7063269 36.37666266 198.21346946 38.77952647 201.78125 41.36328125 C203.40289938 42.43088817 205.02771425 43.49370862 206.65625 44.55078125 C210.55721762 47.17228712 214.33135463 49.78688494 217.52734375 53.26171875 C224.19220374 59.47609427 233.35532043 62.50761453 242.09375 64.42578125 C248.73986901 65.90907918 253.55766396 67.96758432 258.78125 72.36328125 C259.58820313 73.00007813 260.39515625 73.636875 261.2265625 74.29296875 C271.15666455 82.58323743 278.55324176 92.45276921 280.78125 105.36328125 C280.96429688 106.31074219 281.14734375 107.25820312 281.3359375 108.234375 C281.82759643 111.68892591 281.91378471 114.99971012 281.90625 118.48828125 C281.90882813 119.68710938 281.91140625 120.8859375 281.9140625 122.12109375 C281.80635069 124.75052921 281.56219464 126.87169598 280.78125 129.36328125 C281.37550781 129.51023438 281.96976562 129.6571875 282.58203125 129.80859375 C292.58040077 132.51421785 303.07444141 137.18668269 309.78125 145.36328125 C311.74855746 148.79979067 313.4645918 152.28202393 315.12109375 155.875 C316.57021511 158.91985972 318.1456216 161.65991914 319.96875 164.48828125 C325.90077668 174.14765089 328.70289171 184.74667729 326.90625 195.92578125 C326.45384211 199.9010256 326.45384211 199.9010256 328.09375 203.41796875 C329.33572705 204.70812595 330.59595581 205.98088877 331.87109375 207.23828125 C340.2582536 216.56878218 343.24771887 235.13652626 343.78125 247.36328125 C343.85859375 248.70519531 343.85859375 248.70519531 343.9375 250.07421875 C344.33222008 262.60658132 341.55791382 273.05505276 335.20703125 283.71875 C333.54396752 286.30265876 333.54396752 286.30265876 333.78125 289.36328125 C334.52375 290.41515625 335.26625 291.46703125 336.03125 292.55078125 C338.65793855 296.5728981 339.90006581 300.7385769 341.03125 305.36328125 C341.19399414 306.02739014 341.35673828 306.69149902 341.52441406 307.37573242 C344.93523705 322.11432583 346.1580595 337.56306465 338.23828125 350.9765625 C330.47982929 362.67637907 321.37001141 370.48077799 307.78125 374.36328125 C308.44125 379.31328125 309.10125 384.26328125 309.78125 389.36328125 C310.44125 389.36328125 311.10125 389.36328125 311.78125 389.36328125 C311.78125 394.97328125 311.78125 400.58328125 311.78125 406.36328125 C310.13125 406.69328125 308.48125 407.02328125 306.78125 407.36328125 C306.41 408.62140625 306.03875 409.87953125 305.65625 411.17578125 C301.69429621 422.69982037 296.42663656 430.08199822 285.78125 436.36328125 C280.88532418 438.61782365 275.88679149 440.39934281 270.78125 442.11328125 C268.21126621 442.98525143 265.65230429 443.87916766 263.09375 444.78515625 C261.41732422 445.35121582 261.41732422 445.35121582 259.70703125 445.92871094 C254.74121076 448.36355416 252.66114523 452.25635907 250.53125 457.17578125 C244.34869017 469.80319133 231.78039103 476.77443982 218.96484375 481.36328125 C201.48682762 486.8533084 183.85645164 484.7481388 167.16015625 477.62890625 C160.64009225 474.16010373 154.94540414 469.6052458 149.78125 464.36328125 C149.75937622 465.43642578 149.75937622 465.43642578 149.73706055 466.53125 C149.66205787 469.80910561 149.56557045 473.08600042 149.46875 476.36328125 C149.44619141 477.48863281 149.42363281 478.61398437 149.40039062 479.7734375 C149.09051476 489.40775998 147.54352301 496.39745207 140.796875 503.59765625 C135.57179194 508.174667 129.86108378 509.98006947 122.96875 509.62109375 C115.79062396 508.77510032 108.1755501 506.87773356 103.015625 501.53515625 C98.15358691 495.35139907 96.52056551 489.90610502 96.5859375 481.99609375 C96.5887674 481.31650604 96.59159729 480.63691833 96.59451294 479.93673706 C96.60562036 477.78706517 96.63070609 475.63782511 96.65625 473.48828125 C96.66629205 472.02214148 96.67541575 470.55599511 96.68359375 469.08984375 C96.70381896 465.51402667 96.74298287 461.93913171 96.78125 458.36328125 C91.50125 458.36328125 86.22125 458.36328125 80.78125 458.36328125 C80.82765625 460.41289062 80.8740625 462.4625 80.921875 464.57421875 C80.94972359 466.59324183 80.97741673 468.61226998 81.00097656 470.63134766 C81.02090342 472.01819281 81.0480556 473.40495607 81.08300781 474.79150391 C81.33035992 484.86746474 80.65795193 493.51821583 74.40625 501.80078125 C69.46229072 506.62702721 64.47089661 508.06772816 57.7578125 508.60546875 C52.56579428 508.28925546 48.39329824 506.71566347 43.59375 504.80078125 C42.70494141 504.47787109 41.81613281 504.15496094 40.90039062 503.82226562 C36.62824105 502.13715779 33.59943386 500.83131781 31.23046875 496.7734375 C29.18140189 491.95177883 28.64464552 488.23553153 28.68359375 483.0703125 C28.68571617 482.01126961 28.68571617 482.01126961 28.68788147 480.93083191 C28.69347236 478.67910499 28.70602312 476.42747804 28.71875 474.17578125 C28.72376618 472.6477879 28.72832888 471.11979298 28.73242188 469.59179688 C28.7425873 465.84888897 28.76216431 462.10619682 28.78125 458.36328125 C23.50125 458.36328125 18.22125 458.36328125 12.78125 458.36328125 C12.80445313 460.20792969 12.82765625 462.05257813 12.8515625 463.953125 C12.87033043 466.40233968 12.88852953 468.85155877 12.90625 471.30078125 C12.93138672 473.11932617 12.93138672 473.11932617 12.95703125 474.97460938 C13.00745796 484.27833744 12.9709144 492.87052961 6.78125 500.36328125 C0.63520682 506.47067007 -4.01835991 509.63158289 -12.90625 509.80078125 C-21.25104765 509.67832091 -26.67517549 507.2135477 -33.09375 502.05078125 C-38.7842792 494.8539355 -40.35987161 487.99881961 -40.31640625 478.87109375 C-40.31318359 477.67226563 -40.30996094 476.4734375 -40.30664062 475.23828125 C-40.29407227 473.38203125 -40.29407227 473.38203125 -40.28125 471.48828125 C-40.27673828 470.22757812 -40.27222656 468.966875 -40.26757812 467.66796875 C-40.2558296 464.56635739 -40.23940167 461.464844 -40.21875 458.36328125 C-41.13914062 458.45609375 -42.05953125 458.54890625 -43.0078125 458.64453125 C-54.39128887 459.2936908 -62.11220132 456.53786072 -70.74902344 449.03369141 C-77.61389844 442.60217023 -81.98431765 436.96678609 -82.37890625 427.53515625 C-82.43067663 423.80593383 -82.34977605 420.09024458 -82.21875 416.36328125 C-82.95923584 416.37375488 -83.69972168 416.38422852 -84.46264648 416.39501953 C-87.86047895 416.43693206 -91.25825675 416.4627187 -94.65625 416.48828125 C-95.82091797 416.50503906 -96.98558594 416.52179688 -98.18554688 416.5390625 C-107.27859699 416.59029095 -116.04564721 416.57997034 -123.21875 410.36328125 C-128.92658903 403.08779629 -130.8009912 397.41719366 -130.76953125 388.16796875 C-129.67145358 380.58266629 -125.74987345 372.16976754 -120.515625 366.52734375 C-112.60903089 362.52026034 -103.79446695 363.11888006 -95.15625 363.23828125 C-93.90908203 363.24730469 -92.66191406 363.25632812 -91.37695312 363.265625 C-88.32413483 363.28901824 -85.27141644 363.32488293 -82.21875 363.36328125 C-82.21875 358.08328125 -82.21875 352.80328125 -82.21875 347.36328125 C-84.42433594 347.4096875 -86.62992188 347.45609375 -88.90234375 347.50390625 C-91.06695257 347.53520799 -93.23153503 347.55943485 -95.39624023 347.58300781 C-96.88691718 347.60297583 -98.3775173 347.63016045 -99.86791992 347.66503906 C-116.85228194 348.05221191 -116.85228194 348.05221191 -123.21875 343.36328125 C-129.57408363 336.01266038 -130.7836995 327.2579544 -130.5859375 317.8203125 C-129.87419485 311.11933114 -128.30737459 304.02323552 -123.0234375 299.47265625 C-117.12295422 296.08425991 -112.0349307 295.2369415 -105.265625 295.265625 C-104.60540344 295.26703995 -103.94518188 295.2684549 -103.26495361 295.26991272 C-101.16617206 295.2754888 -99.06749905 295.28803678 -96.96875 295.30078125 C-95.54166821 295.30579935 -94.11458475 295.31036171 -92.6875 295.31445312 C-89.19784168 295.32459748 -85.70841668 295.34417724 -82.21875 295.36328125 C-82.21875 290.08328125 -82.21875 284.80328125 -82.21875 279.36328125 C-84.36375 279.39808594 -86.50875 279.43289063 -88.71875 279.46875 C-90.82046175 279.49221651 -92.92215833 279.51039247 -95.02392578 279.52807617 C-96.47288661 279.54306542 -97.92180283 279.56346396 -99.37060547 279.58959961 C-116.82626515 279.89636689 -116.82626515 279.89636689 -124.09375 274.05078125 C-128.04263452 269.05660377 -128.75062565 263.57101725 -129.21875 257.36328125 C-129.31929687 256.39132812 -129.41984375 255.419375 -129.5234375 254.41796875 C-130.06767299 245.38365955 -127.68082135 238.6108266 -122.21875 231.36328125 C-116.90414462 227.50873229 -112.51128907 227.2391315 -106.046875 227.265625 C-105.3644574 227.26703995 -104.68203979 227.2684549 -103.97894287 227.26991272 C-101.80883316 227.27549041 -99.6388283 227.28803871 -97.46875 227.30078125 C-95.99349108 227.30579914 -94.51823053 227.31036154 -93.04296875 227.31445312 C-89.43482337 227.32459977 -85.82690345 227.34417926 -82.21875 227.36328125 C-82.21875 222.08328125 -82.21875 216.80328125 -82.21875 211.36328125 C-84.26835938 211.4096875 -86.31796875 211.45609375 -88.4296875 211.50390625 C-90.44871058 211.53175484 -92.46773873 211.55944798 -94.48681641 211.58300781 C-95.87366156 211.60293467 -97.26042482 211.63008685 -98.64697266 211.66503906 C-108.13718188 211.89801171 -117.31043429 211.89403422 -124.65625 205.11328125 C-127.65320489 199.83864065 -129.63578145 194.42615416 -130.21875 188.36328125 C-130.30640625 187.49960938 -130.3940625 186.6359375 -130.484375 185.74609375 C-130.95784756 177.46032387 -129.05331782 171.15067668 -124.21875 164.36328125 C-119.10199458 159.92660092 -113.44923704 159.21643502 -106.92578125 159.265625 C-105.86673836 159.26774742 -105.86673836 159.26774742 -104.78630066 159.26991272 C-102.53457374 159.27550361 -100.28294679 159.28805437 -98.03125 159.30078125 C-96.50325665 159.30579743 -94.97526173 159.31036013 -93.44726562 159.31445312 C-89.70435772 159.32461855 -85.96166557 159.34419556 -82.21875 159.36328125 C-82.21875 154.08328125 -82.21875 148.80328125 -82.21875 143.36328125 C-84.98572266 143.39808594 -84.98572266 143.39808594 -87.80859375 143.43359375 C-90.25780843 143.45236168 -92.70702752 143.47056078 -95.15625 143.48828125 C-96.97479492 143.51341797 -96.97479492 143.51341797 -98.83007812 143.5390625 C-116.9541017 143.63729569 -116.9541017 143.63729569 -124.21875 137.36328125 C-130.38609287 129.09001642 -130.96738712 121.45406609 -130.21875 111.36328125 C-129.371085 108.23903027 -128.12087584 105.96305199 -126.21875 103.36328125 C-125.81785156 102.739375 -125.41695313 102.11546875 -125.00390625 101.47265625 C-120.91734671 95.8343886 -115.70247694 94.2847228 -109.21875 92.36328125 C-108.33960937 92.00105469 -107.46046875 91.63882813 -106.5546875 91.265625 C-101.79948416 89.97938147 -97.24386276 90.1519649 -92.34375 90.23828125 C-90.88195312 90.25181641 -90.88195312 90.25181641 -89.390625 90.265625 C-86.99974272 90.28906502 -84.60937739 90.32187683 -82.21875 90.36328125 C-82.26515625 89.37328125 -82.3115625 88.38328125 -82.359375 87.36328125 C-82.81899274 73.56601096 -82.81899274 73.56601096 -78.21875 67.36328125 C-77.77917969 66.71230469 -77.33960938 66.06132813 -76.88671875 65.390625 C-70.56864288 57.08915316 -59.19286761 51.0681267 -49.21875 48.36328125 C-46.19791853 48.15872101 -43.23942174 48.17448927 -40.21875 48.36328125 C-40.26 47.51765625 -40.30125 46.67203125 -40.34375 45.80078125 C-40.21875 42.36328125 -40.21875 42.36328125 -39.15625 38.80078125 C-38.16909746 35.18122195 -38.3758535 33.90344653 -39.21875 30.36328125 C-40.13406463 20.394311 -37.36464697 11.26514878 -31.21875 3.36328125 C-23.43144569 -4.42402306 -9.46298937 -5.22615095 0 0 Z " fill="#010000" transform="translate(133.21875,2.63671875)"/>
<path d="M0 0 C0 124.08 0 248.16 0 376 C-149 376 -149 376 -157 371 C-162.94170746 364.12506264 -162.71124201 357.58252738 -162.63491821 348.80444336 C-162.64068451 347.35955036 -162.64862904 345.91466469 -162.65855443 344.46979427 C-162.67938177 340.51256223 -162.6691317 336.5559349 -162.65362334 332.598701 C-162.64229676 328.32594219 -162.65977901 324.05328636 -162.67352295 319.7805481 C-162.69574597 311.41549623 -162.69095836 303.05066878 -162.67645974 294.68560815 C-162.66516382 287.88664932 -162.66363814 281.08775336 -162.66907883 274.28878784 C-162.66984499 273.32080511 -162.67061116 272.35282238 -162.67140054 271.35550684 C-162.67299918 269.38901494 -162.67462025 267.42252306 -162.6762635 265.4560312 C-162.69051826 247.01997546 -162.67413255 228.58404406 -162.64726166 210.1480087 C-162.62492314 194.33200864 -162.62880334 178.51619207 -162.65185547 162.70019531 C-162.67861828 144.32972601 -162.68914498 125.95936566 -162.67379415 107.58887959 C-162.67220142 105.62965713 -162.67062957 103.67043465 -162.66907883 101.71121216 C-162.66830745 100.74725916 -162.66753607 99.78330617 -162.66674132 98.79014248 C-162.66242577 92.00003214 -162.66970776 85.20999098 -162.68147659 78.41989136 C-162.69550547 70.143999 -162.6916935 61.86834374 -162.66507287 53.59247851 C-162.65193986 49.37064361 -162.64677332 45.14920388 -162.66331863 40.92737198 C-162.67824224 37.06084582 -162.66999113 33.1950803 -162.64343087 29.32862294 C-162.63785601 27.93169756 -162.64066417 26.53470764 -162.65280981 25.13782394 C-162.71890997 16.90240389 -162.49629932 11.35957151 -157 5 C-112.59892253 -22.75067342 -52.35986589 0 0 0 Z " fill="#9D9D9D" transform="translate(230,68)"/>
<path d="M0 0 C2.0144043 1.06567383 2.0144043 1.06567383 5.0144043 3.06567383 C5.0144043 3.72567383 5.0144043 4.38567383 5.0144043 5.06567383 C4.26416992 5.39438477 3.51393555 5.7230957 2.7409668 6.06176758 C-10.82516839 12.36643242 -19.25823674 20.82131287 -25.0793457 34.66723633 C-27.13693652 40.66854287 -27.88766262 46.76134101 -26.9855957 53.06567383 C-25.60847209 56.33502526 -25.60847209 56.33502526 -22.9855957 58.06567383 C-19.9875003 58.50289607 -17.835813 58.26902147 -14.91137695 57.56958008 C-11.73481834 55.08890043 -11.78850486 51.34349688 -11.1730957 47.56567383 C-9.1407919 37.14162316 -5.62124522 30.48791656 3.0769043 24.06567383 C11.36947704 18.78180064 19.19553261 17.68334474 28.88549805 19.64770508 C38.19834013 22.54063049 45.55497547 28.54979815 50.1394043 37.19067383 C53.17892986 44.83260157 53.42624501 53.56047424 50.97143555 61.39379883 C48.28679886 65.05905131 45.45410388 65.34141853 41.2019043 66.00317383 C25.34958199 69.11789757 11.73304107 77.18822446 1.90112305 90.17114258 C-4.12181459 99.41130157 -8.11169562 108.99097636 -8.9855957 120.06567383 C-9.06680664 120.91258789 -9.14801758 121.75950195 -9.23168945 122.63208008 C-9.44420791 126.54113161 -9.22658364 128.61150425 -7.3605957 132.12817383 C-5.09671015 134.30211504 -5.09671015 134.30211504 -1.9855957 134.56567383 C1.48868581 133.98662691 2.59430024 133.61289446 5.0144043 131.06567383 C5.98739461 128.10328658 6.44705181 125.07492333 6.9519043 122.00317383 C9.52991495 108.43462984 14.55833836 98.72044761 25.6550293 89.98754883 C36.64080076 82.51722423 48.31556324 80.44920032 61.3894043 82.62817383 C73.57172413 85.78490634 83.43754132 92.24322503 90.2019043 102.81567383 C96.90131641 114.74170504 98.19839689 125.02772571 96.2644043 138.56567383 C95.88195896 142.01893026 95.94415451 142.9193201 97.5144043 146.19067383 C98.86367702 147.74233746 100.22251751 149.28685695 101.6315918 150.78442383 C111.45692166 161.43944821 115.56946032 173.31939511 115.3347168 187.65551758 C114.79155683 193.43818409 113.08188047 198.66286153 111.0144043 204.06567383 C110.73725586 204.8055957 110.46010742 205.54551758 110.17456055 206.30786133 C105.17535804 217.78068552 94.23398775 226.7646423 82.8269043 231.37817383 C77.10025392 233.31705403 71.29006119 233.88257915 65.29956055 234.37817383 C61.55930178 235.16091526 60.2496319 236.00606773 58.0144043 239.06567383 C57.68345471 242.83849909 57.81685612 245.47302931 59.0144043 249.06567383 C70.64200544 252.94154087 84.66853911 248.10953517 95.37768555 243.40551758 C98.89719354 241.61708611 101.87713688 239.45272512 105.0144043 237.06567383 C105.6744043 237.06567383 106.3344043 237.06567383 107.0144043 237.06567383 C113.40864747 245.70137725 116.14015504 254.37104172 115.0144043 265.06567383 C112.58360881 276.00425353 107.29184878 284.67072753 98.0144043 291.06567383 C92.17594072 294.39066756 86.06397688 295.91116401 79.51831055 297.25708008 C76.68581476 297.88545606 76.68581476 297.88545606 75.0144043 301.06567383 C74.42327027 305.79474608 75.20794781 308.79624423 77.0144043 313.19067383 C81.1826699 323.95130275 79.57250601 335.63067381 75.0144043 346.00317383 C68.81236674 357.64559521 59.44215653 363.15955237 47.3894043 367.31567383 C44.61636249 367.93190534 42.14073282 368.23020861 39.3269043 368.44067383 C36.39585226 368.7437148 35.19257527 368.94528804 32.7019043 370.62817383 C30.84359727 373.16565366 30.84359727 373.16565366 29.3269043 376.69067383 C23.06232471 389.85857444 11.14059469 397.18467562 -1.9855957 402.06567383 C-12.5921504 405.60119206 -27.05610386 403.664168 -36.9855957 399.06567383 C-40.60493058 397.02333486 -43.79570517 394.72391594 -46.9855957 392.06567383 C-47.69458008 391.49204102 -48.40356445 390.9184082 -49.1340332 390.32739258 C-58.22940906 382.19034177 -63.62366108 369.70096837 -64.35668945 357.58520508 C-64.75400325 342.37193179 -61.31136924 330.6776402 -50.9855957 319.06567383 C-40.82748179 309.19441695 -30.0595982 305.10639929 -16.17700195 304.63989258 C-12.385665 303.95773036 -10.69140914 302.76656761 -7.9855957 300.06567383 C-6.97172725 296.82129478 -6.66739842 294.97131225 -7.7980957 291.75317383 C-8.89246895 289.91469561 -8.89246895 289.91469561 -10.9855957 289.06567383 C-27.14731827 288.07345473 -42.10256331 291.08566436 -55.02856445 301.52270508 C-56.74721181 303.09751182 -58.43983738 304.70158569 -60.0949707 306.34301758 C-61.9855957 308.06567383 -61.9855957 308.06567383 -63.9855957 308.06567383 C-64.07903069 286.00409227 -64.14957085 263.94254333 -64.19284439 241.88080406 C-64.21347097 231.63718426 -64.24159346 221.39368739 -64.28735352 211.15014648 C-64.32721828 202.22203255 -64.35302782 193.29400764 -64.36194968 184.36580718 C-64.36716503 179.63821303 -64.37942504 174.91087358 -64.40851593 170.18336105 C-64.43567931 165.73300099 -64.44403884 161.28300039 -64.43802643 156.83256531 C-64.43912625 155.19993257 -64.44707477 153.56728773 -64.4624176 151.93472672 C-64.48236084 149.70306407 -64.47752029 147.47275318 -64.46661377 145.24105835 C-64.47030094 143.99295065 -64.47398811 142.74484295 -64.47778702 141.4589138 C-63.67432527 135.91972927 -60.36343459 131.65517918 -56.03637695 128.15551758 C-52.24160311 126.13886633 -48.01327535 125.5773892 -43.8137207 124.83911133 C-40.67701728 124.31374575 -40.67701728 124.31374575 -38.9855957 121.06567383 C-38.60094676 115.73098954 -38.60094676 115.73098954 -40.9855957 111.06567383 C-47.47998223 108.90087832 -52.8028658 110.0382939 -59.00512695 112.40942383 C-60.9855957 113.06567383 -60.9855957 113.06567383 -63.9855957 113.06567383 C-64.1026966 98.89626532 -64.19038112 84.72693248 -64.24465656 70.55713844 C-64.27071076 63.97696738 -64.30603371 57.39712221 -64.36279297 50.81713867 C-64.41725989 44.46288235 -64.44704765 38.10893882 -64.45998192 31.75446701 C-64.46919531 29.33443658 -64.48718693 26.91442259 -64.51424599 24.49452591 C-64.5507298 21.09550707 -64.55553275 17.69776822 -64.55322266 14.29858398 C-64.57119904 13.30595551 -64.58917542 12.31332703 -64.60769653 11.2906189 C-64.55093763 3.53398502 -62.54806141 -3.17246267 -57.112813 -8.91193199 C-41.34584726 -23.17327523 -15.55334904 -7.68543566 0 0 Z " fill="#ED304B" transform="translate(345.985595703125,65.934326171875)"/>
<path d="M0 0 C2.8125 2.4375 2.8125 2.4375 5 5 C5.33 5.33 5.66 5.66 6 6 C6.1024618 8.46517674 6.13915367 10.90251134 6.13422108 13.36836529 C6.13657331 14.15281532 6.13892554 14.93726535 6.14134905 15.74548659 C6.14807428 18.40803059 6.14757977 21.07052619 6.14717102 23.733078 C6.15046747 25.64769784 6.15419256 27.56231697 6.1583125 29.47693521 C6.16836574 34.76482504 6.17205462 40.05270352 6.17470181 45.34060156 C6.17859509 51.03332673 6.18817411 56.72604281 6.19691467 62.41876221 C6.2167075 76.18045082 6.22674917 89.94214021 6.23564246 103.70383951 C6.24002103 110.17785326 6.24538898 116.65186619 6.25063133 123.12587929 C6.26764695 144.63614227 6.28216701 166.14640395 6.28938007 187.65667248 C6.28985483 189.04848535 6.29033072 190.44029821 6.29080774 191.83211108 C6.2911623 192.8674569 6.2911623 192.8674569 6.29152403 193.9237188 C6.29272525 197.42090694 6.29394069 200.91809507 6.29516602 204.4152832 C6.29540617 205.10931761 6.29564632 205.80335203 6.29589374 206.51841778 C6.30378753 229.02316268 6.3272196 251.52785488 6.35972196 274.03257676 C6.39400512 297.81365996 6.4137287 321.59470588 6.41702431 345.37581521 C6.4191928 358.34393721 6.42799083 371.31198178 6.45348549 384.2800808 C6.47514373 395.32256561 6.48326702 406.36495421 6.47351871 417.40745785 C6.46895975 423.04460007 6.47095263 428.68154359 6.49028015 434.31865883 C6.50781105 439.47617551 6.50699642 444.63334706 6.49138286 449.79086689 C6.48899139 451.65971078 6.49340936 453.52857794 6.50521151 455.3973861 C6.52023565 457.93282355 6.5107244 460.4670231 6.49498463 463.00242901 C6.50520683 463.73240171 6.51542904 464.46237441 6.52596101 465.2144675 C6.45750888 470.24740035 5.16699643 473.12432513 2 477 C-0.88861709 478.44430855 -2.79647701 478.37688506 -6 478 C-8.57285724 475.827365 -10.48996919 474.02006162 -12 471 C-12.10015517 468.49284845 -12.13925294 466.01333017 -12.13422108 463.50579357 C-12.13657331 462.7198901 -12.13892554 461.93398663 -12.14134905 461.12426791 C-12.14806224 458.46281113 -12.14758013 455.80140291 -12.14717102 453.13993835 C-12.1504682 451.22374278 -12.15419345 449.30754789 -12.1583125 447.39135391 C-12.16835714 442.10379281 -12.17205324 436.81624306 -12.17470181 431.52867377 C-12.17859753 425.83462198 -12.1881763 420.14057924 -12.19691467 414.4465332 C-12.21669899 400.68526759 -12.22674742 386.92400122 -12.23564246 373.16272494 C-12.24002181 366.68858445 -12.2453895 360.21444479 -12.25063133 353.74030495 C-12.26764496 332.22999936 -12.28216552 310.71969509 -12.28938007 289.20938396 C-12.28985483 287.81785752 -12.29033072 286.42633108 -12.29080774 285.03480463 C-12.29104411 284.34471937 -12.29128049 283.65463412 -12.29152403 282.94363718 C-12.29272525 279.44720669 -12.29394069 275.95077619 -12.29516602 272.4543457 C-12.29540617 271.76046342 -12.29564632 271.06658113 -12.29589374 270.35167211 C-12.30378936 247.8466205 -12.32722626 225.34162155 -12.35972196 202.83659294 C-12.39399953 179.05420023 -12.4137281 155.27184479 -12.41702431 131.48942596 C-12.41919316 118.52079181 -12.42799644 105.55223506 -12.45348549 92.58362389 C-12.4751361 81.54223266 -12.48327076 70.50093762 -12.47351871 59.45952757 C-12.46895771 53.82250232 -12.47096433 48.18567576 -12.49028015 42.54867744 C-12.50779644 37.39248652 -12.50700856 32.23664094 -12.49138286 27.08044694 C-12.48898915 25.21097779 -12.49342067 23.34148544 -12.50521151 21.47205194 C-12.52020841 18.93818616 -12.51074357 16.40556347 -12.49498463 13.87172985 C-12.50520683 13.13941598 -12.51542904 12.40710212 -12.52596101 11.65259692 C-12.46020023 6.83535233 -11.42018397 4.38172591 -8 1 C-5.11138291 -0.44430855 -3.20352299 -0.37688506 0 0 Z " fill="#01A0E7" transform="translate(259,17)"/>
<path d="M0 0 C49.17 0 98.34 0 149 0 C149 124.08 149 248.16 149 376 C99.83 376 50.66 376 0 376 C0 375.67 0 375.34 0 375 C43.56 375 87.12 375 132 375 C132 251.58 132 128.16 132 1 C88.44 1 44.88 1 0 1 C0 0.67 0 0.34 0 0 Z " fill="#707070" transform="translate(81,68)"/>
<path d="M0 0 C0.83484421 -0.01606293 1.66968842 -0.03212585 2.52983093 -0.04867554 C6.35239668 -0.0933744 10.17479213 -0.13420722 13.99755859 -0.15722656 C16.00809326 -0.1737555 18.01856991 -0.20100492 20.02880859 -0.23925781 C22.93854025 -0.29429838 25.84689645 -0.31594371 28.75708008 -0.33056641 C30.09188667 -0.36457047 30.09188667 -0.36457047 31.45365906 -0.39926147 C39.13778826 -0.37351504 43.54276742 2.47338737 49.33911133 7.25537109 C51.75068053 11.97802744 51.60546824 17.0009756 50.83911133 22.19287109 C48.93771752 25.78909985 46.73906644 28.54514507 43.87426758 31.41650391 C43.08334717 32.21372864 42.29242676 33.01095337 41.47753906 33.83233643 C40.62748291 34.67834412 39.77742676 35.52435181 38.90161133 36.39599609 C37.58688843 37.71358917 37.58688843 37.71358917 36.24560547 39.05780029 C33.92265175 41.38246009 31.59489882 43.70218598 29.26550293 46.02038574 C27.83737842 47.44459926 26.41322499 48.87266125 24.99047852 50.30224609 C22.25784079 53.04720581 19.5184066 55.78518645 16.77661133 58.52099609 C15.92655518 59.37510071 15.07649902 60.22920532 14.20068359 61.10919189 C13.40976318 61.89380798 12.61884277 62.67842407 11.80395508 63.48681641 C11.10906982 64.18011047 10.41418457 64.87340454 9.69824219 65.58770752 C5.85285593 68.90779331 1.39470582 68.53244493 -3.43823242 68.46240234 C-7.38830031 68.07136262 -9.29555072 66.92176438 -12.16088867 64.19287109 C-16.86715847 58.37421615 -17.89178055 53.58111402 -17.75463867 46.21630859 C-17.75467896 45.28742828 -17.75471924 44.35854797 -17.75476074 43.40151978 C-17.74942873 41.45006494 -17.73194609 39.49860894 -17.70288086 37.54736328 C-17.66090676 34.56915418 -17.66182932 31.59320227 -17.66870117 28.61474609 C-17.65821102 26.71108463 -17.64527387 24.80743475 -17.62963867 22.90380859 C-17.62933655 21.57704605 -17.62933655 21.57704605 -17.62902832 20.22348022 C-17.51580837 14.28480731 -16.61745963 9.85601734 -12.44213867 5.32958984 C-11.85432617 4.85134766 -11.26651367 4.37310547 -10.66088867 3.88037109 C-10.07307617 3.38923828 -9.48526367 2.89810547 -8.87963867 2.39208984 C-5.99576788 0.37993454 -3.41084056 0.05983479 0 0 Z " fill="#020202" transform="translate(102.160888671875,84.80712890625)"/>
<path d="M0 0 C2.76436174 2.0866787 3.85857956 3.27937968 4.53125 6.70703125 C4.34618852 25.09751587 -2.0618304 42.24998253 -15.109375 55.30859375 C-23.98536387 63.57285906 -34.5414135 71.16942757 -47 72 C-40.79628125 83.49846772 -35.33717864 87.96007219 -23 92 C-16.51445087 94.48554913 -16.51445087 94.48554913 -14 97 C-13.45080092 103.81006865 -13.45080092 103.81006865 -15.125 107.4375 C-17.70340115 109.58616763 -19.67601553 109.66324353 -23 110 C-36.99589453 108.27904935 -48.08228129 101.69074745 -56.859375 90.6640625 C-60.28634547 85.6932588 -64 80.18724945 -64 74 C-64.53625 74.05800781 -65.0725 74.11601562 -65.625 74.17578125 C-81.92692373 75.11421436 -95.66634027 66.62367491 -107.96875 56.9296875 C-109.99858851 55.00134092 -111.04471261 53.61391823 -112 51 C-111.8557024 47.5368575 -111.34562497 45.52534996 -109.4375 42.625 C-106.69416076 40.79610718 -104.5755161 40.19442055 -101.265625 40.34765625 C-97.32060673 41.48354944 -94.63793828 44.24163827 -91.5859375 46.89453125 C-83.57497743 53.4170501 -74.38566283 56.37543081 -64.1875 56.25 C-63.3836084 56.24178223 -62.5797168 56.23356445 -61.75146484 56.22509766 C-47.76687498 55.96091589 -36.41555472 51.21594828 -26.1875 41.4140625 C-18.5314566 32.96507175 -14.04906187 22.48237848 -13.5625 11.125 C-13.33461031 6.95858205 -13.18770728 5.30146927 -10.9375 1.6875 C-6.80884786 -0.68427889 -4.72805985 -0.67543712 0 0 Z " fill="#030001" transform="translate(420,180)"/>
<path d="M0 0 C1.53026264 0.40328221 3.05071669 0.84468432 4.5625 1.3125 C5.56023437 1.61929687 6.55796875 1.92609375 7.5859375 2.2421875 C24.51287347 8.07212982 36.17566816 19.75646145 44.00097656 35.51586914 C47.18694785 42.22725944 48.83041539 48.24694218 48.6875 55.75 C48.66945313 56.98621094 48.65140625 58.22242188 48.6328125 59.49609375 C48.60960937 60.42550781 48.58640625 61.35492188 48.5625 62.3125 C49.2225 61.9825 49.8825 61.6525 50.5625 61.3125 C55.2355496 60.88241402 59.30601106 60.74836211 63.625 62.6875 C66.58995264 65.17423447 66.55185587 66.20251061 66.9375 70.1875 C67.0859375 72.2421875 67.0859375 72.2421875 66.5625 74.3125 C62.94717721 78.07484146 60.10670015 78.82589407 55 79.25 C42.31232736 80.7895084 31.41771099 86.00298686 23.3125 96.0625 C17.60289856 104.365937 14.92469258 112.5410338 13.8137207 122.47436523 C13.31820706 126.1853641 12.79910274 128.06303418 10.19140625 130.8125 C7.5625 132.3125 7.5625 132.3125 4 132.375 C-0.13653339 131.09643514 -1.106555 129.89395197 -3.4375 126.3125 C-5.81976341 114.66405341 -1.19765095 101.35635052 4.8125 91.4375 C11.6094429 81.68790663 19.1123878 74.14891212 29.5625 68.3125 C30.2225 68.3125 30.8825 68.3125 31.5625 68.3125 C31.37695722 53.13172682 29.53045087 40.75830765 18.5625 29.3125 C10.58328432 22.15043292 1.22636021 17.52686045 -9.5 16.9375 C-14.31920729 16.6086459 -17.11608593 16.09204015 -20.4375 12.3125 C-21.88180855 9.42388291 -21.81438506 7.51602299 -21.4375 4.3125 C-16.81145314 -3.28743413 -7.69304989 -1.45044564 0 0 Z " fill="#030001" transform="translate(339.4375,309.6875)"/>
<path d="M0 0 C-0.03222656 0.86882812 -0.06445312 1.73765625 -0.09765625 2.6328125 C-0.26144569 9.36998882 -0.26144569 9.36998882 2.89453125 14.953125 C4.47352625 15.90628285 6.07913651 16.81659098 7.70703125 17.68359375 C12.374833 20.36340498 14.4140222 24.49319996 16.3125 29.375 C17.74217622 36.91329282 17.67605854 44.07959086 14 51 C11.93865198 53.46356227 9.65821277 55.21409395 7 57 C6.30519531 57.48726563 5.61039062 57.97453125 4.89453125 58.4765625 C-0.73414918 62.04305381 -5.42002324 63.35170065 -12 62 C-15.01478668 61.07042873 -17.94393776 59.97772754 -20.875 58.8125 C-21.61298828 58.52149414 -22.35097656 58.23048828 -23.11132812 57.93066406 C-28.76383294 55.5137131 -31.78486048 52.89079371 -34.2265625 47.08203125 C-36.1667082 39.35084459 -36.05689782 31.15091173 -32.33203125 24.00390625 C-28.63209249 18.43772273 -24.69858998 14.47042219 -18 13 C-18.144375 11.989375 -18.28875 10.97875 -18.4375 9.9375 C-17.91110459 5.1999413 -16.72521453 3.42064573 -13.2890625 0.24609375 C-9.00521055 -2.08590074 -4.59572184 -0.9889528 0 0 Z " fill="#000000" transform="translate(453,449)"/>
<path d="M0 0 C5.55682265 -0.49413244 9.1328374 1.07483536 13.9375 3.5625 C14.64825684 3.92746582 15.35901367 4.29243164 16.09130859 4.66845703 C27.6211439 10.79659244 34.13044951 20.73175438 38.31640625 33.01171875 C40.01264285 40.42669588 39.31626613 48.03613707 38.25 55.5 C37.86755466 58.95325644 37.92975021 59.85364627 39.5 63.125 C40.84927272 64.67666363 42.20811321 66.22118313 43.6171875 67.71875 C53.44251736 78.37377438 57.55505603 90.25372128 57.3203125 104.58984375 C56.77715253 110.37251026 55.06747617 115.5971877 53 121 C52.72285156 121.73992187 52.44570313 122.47984375 52.16015625 123.2421875 C47.85726487 133.11702578 39.10216197 140.62742425 30 146 C29.01 146.33 28.02 146.66 27 147 C27 146.34 27 145.68 27 145 C25.68 144.34 24.36 143.68 23 143 C23.804375 141.7934375 23.804375 141.7934375 24.625 140.5625 C24.98980469 140.00691406 25.35460937 139.45132813 25.73046875 138.87890625 C26.59823177 137.59461699 27.49864572 136.33195135 28.42578125 135.08984375 C37.24480435 122.89817099 40.58547821 107.87910316 39 93 C36.77783698 80.92709897 31.49959017 70.62208217 23 61.75 C19.99184519 58.44035974 19.99184519 58.44035974 20.0625 54.625 C20.371875 53.42875 20.68125 52.2325 21 51 C21.08837908 49.27259078 21.12753245 47.54216675 21.125 45.8125 C21.12757813 44.99394531 21.13015625 44.17539063 21.1328125 43.33203125 C21.00459973 41.08076586 20.5518791 39.1773355 20 37 C19.95085055 35.54189968 19.909845 34.08351227 19.875 32.625 C18.71737263 20.73300974 11.21862082 11.1071279 3 3 C2.41734375 2.41605469 1.8346875 1.83210937 1.234375 1.23046875 C0.82703125 0.82441406 0.4196875 0.41835937 0 0 Z " fill="#B9183A" transform="translate(404,149)"/>
<path d="M0 0 C4.80204242 5.93936826 6.44615402 12.19826253 6.25390625 19.734375 C5.57327478 25.80770194 2.86333961 31.32332574 -1 36 C-2.53996696 36.75348383 -4.08181149 37.50313633 -5.625 38.25 C-8.25496441 39.83400475 -9.71010791 40.99167967 -10.57275391 43.9921875 C-11.23824682 48.01051319 -11.48856901 52.01384325 -11.68359375 56.078125 C-12 60 -12 60 -14 62 C-15.231394 58.30581799 -14.64432764 55.7943739 -14 52 C-14.99902344 51.52949219 -15.99804688 51.05898438 -17.02734375 50.57421875 C-18.33098575 49.94584455 -19.63435731 49.31690905 -20.9375 48.6875 C-21.59685547 48.37876953 -22.25621094 48.07003906 -22.93554688 47.75195312 C-24.66276021 46.91049022 -26.3360527 45.96052335 -28 45 C-28.33 44.01 -28.66 43.02 -29 42 C-30.65722256 41.31019162 -32.32540903 40.64650392 -34 40 C-39.28618582 35.80648946 -44.26639936 30.65269247 -46 24 C-46.89466501 16.04120917 -47.02888621 8.5536797 -42 2 C-37.86484719 -2.825944 -34.3210423 -6.48716159 -27.86328125 -7.484375 C-16.51034344 -8.33365968 -8.53071163 -8.10514325 0 0 Z " fill="#000000" transform="translate(464,8)"/>
<path d="M0 0 C14.95850622 0.60165975 14.95850622 0.60165975 21 4 C22.010625 4.53625 23.02125 5.0725 24.0625 5.625 C29.3898725 9.93223734 33.67101027 16.20738584 35 23 C34.90106496 28.34249225 33.29319235 31.59989356 30.3828125 35.890625 C28.95382018 38.07044379 27.80247398 40.3012434 26.625 42.625 C23.70582105 47.96451087 19.84116952 52.05294349 14 54 C5.03901945 54.98667836 -1.74277254 52.75536224 -8.8125 47.25 C-14.58444181 41.96016934 -16.5542522 35.45747796 -17.3125 27.875 C-16.6408021 19.54594606 -13.87809782 12.98249891 -7.68359375 7.33984375 C-3.48688047 4 -3.48688047 4 0 4 C0 2.68 0 1.36 0 0 Z " fill="#000000" transform="translate(477,416)"/>
<path d="M0 0 C6.45456479 3.93802159 11.32581999 10.22044808 13.39453125 17.4609375 C14.08555319 21.45034249 14.40742974 24.85144507 12.1875 28.37890625 C10.64453125 30.1484375 10.64453125 30.1484375 9.09765625 31.66015625 C7.22049208 33.52940157 7.22049208 33.52940157 5.55078125 36.375 C0.44189651 43.68662852 -8.0068088 49.19813225 -16.60546875 51.4609375 C-19.60546875 51.6484375 -19.60546875 51.6484375 -21.60546875 51.4609375 C-21.60546875 50.1409375 -21.60546875 48.8209375 -21.60546875 47.4609375 C-22.18296875 47.35910156 -22.76046875 47.25726563 -23.35546875 47.15234375 C-28.22443107 45.6561522 -32.23647258 41.55928491 -34.9765625 37.359375 C-38.69368143 30.08852698 -39.55455609 23.55744583 -37.54296875 15.5234375 C-35.24192759 8.4590261 -30.96774107 3.42090339 -24.35546875 0.0234375 C-16.12447588 -3.64758532 -8.28414064 -3.6789412 0 0 Z " fill="#000000" transform="translate(498.60546875,44.5390625)"/>
<path d="M0 0 C-0.0825 0.928125 -0.165 1.85625 -0.25 2.8125 C-0.27822869 6.33402896 0.65400007 8.88796495 2 12.125 C6.1682656 22.88562892 4.55810172 34.56499998 0 44.9375 C-6.24201975 56.65497566 -15.65976461 62.08091761 -27.75 66.3125 C-31.2522619 67.05336309 -34.43028186 67.14570278 -38 67 C-38 66.67 -38 66.34 -38 66 C-36.989375 65.814375 -35.97875 65.62875 -34.9375 65.4375 C-27.26630635 63.19491315 -23.03645845 56.08666687 -19.28515625 49.484375 C-13.34305896 37.99752431 -11.77671905 23.69061765 -15.375 11.1875 C-16.31639613 8.34904802 -16.85438463 7.14561537 -19 5 C-18.67 4.34 -18.34 3.68 -18 3 C-15.890625 2.4375 -15.890625 2.4375 -13.25 2 C-10.29675503 1.47338713 -7.85561075 0.94162988 -5.0625 -0.1875 C-3 -1 -3 -1 0 0 Z " fill="#B8183A" transform="translate(421,367)"/>
<path d="M0 0 C0.66 0 1.32 0 2 0 C8.39424318 8.63570342 11.12575075 17.3053679 10 28 C7.56939649 38.93771578 2.27749781 47.60630519 -7 54 C-12.89889524 57.38780589 -18.24721451 58.57125171 -25 59 C-24.29875 58.34 -23.5975 57.68 -22.875 57 C-12.42416442 46.40155375 -7.70391507 34.33831892 -7.765625 19.57421875 C-8.07234388 14.89675582 -9.21491189 11.31396294 -11 7 C-10.28972656 6.57847656 -9.57945312 6.15695312 -8.84765625 5.72265625 C-7.92855469 5.17480469 -7.00945312 4.62695312 -6.0625 4.0625 C-5.14597656 3.51722656 -4.22945313 2.97195313 -3.28515625 2.41015625 C-1.11587323 1.19267827 -1.11587323 1.19267827 0 0 Z " fill="#B8183A" transform="translate(451,303)"/>
<path d="M0 0 C11.23482314 1.00310921 18.35685487 4.37360292 26 13 C31.49385251 20.89049958 32.26576286 29.60171073 31 39 C29.8359375 42.33203125 29.8359375 42.33203125 28 45 C25.2578125 46.2421875 25.2578125 46.2421875 22.125 46.875 C20.58199219 47.21144531 20.58199219 47.21144531 19.0078125 47.5546875 C16.27894438 47.95870174 13.75202362 48.09139562 11 48 C11.32226562 46.85273438 11.64453125 45.70546875 11.9765625 44.5234375 C14.55749179 34.14033614 14.42577452 22.39140177 9 13 C6.24747833 8.47235339 3.19233961 4.22487675 0 0 Z " fill="#B8183A" transform="translate(367,85)"/>
<path d="M0 0 C10.89 0 21.78 0 33 0 C33 0.66 33 1.32 33 2 C32.319375 2.53625 31.63875 3.0725 30.9375 3.625 C28.56966988 5.53941584 26.89584908 7.19787062 24.96484375 9.4921875 C20.42955325 14.73956211 15.53780824 19.60852088 10.625 24.5 C9.71105469 25.4178125 8.79710938 26.335625 7.85546875 27.28125 C6.98792969 28.1475 6.12039062 29.01375 5.2265625 29.90625 C4.04441162 31.08670898 4.04441162 31.08670898 2.83837891 32.29101562 C1 34 1 34 0 34 C0 22.78 0 11.56 0 0 Z " fill="#E6E6E6" transform="translate(102,102)"/>
<path d="M0 0 C1.16781006 0.00523682 2.33562012 0.01047363 3.53881836 0.01586914 C4.79887695 0.0190918 6.05893555 0.02231445 7.35717773 0.02563477 C8.6976732 0.03399136 10.03816799 0.04245632 11.37866211 0.05102539 C12.72306153 0.05603879 14.06746271 0.06060197 15.41186523 0.06469727 C18.71331644 0.07653042 22.01474471 0.09446653 25.31616211 0.11352539 C25.31616211 6.05352539 25.31616211 11.99352539 25.31616211 18.11352539 C20.75303118 18.22138666 16.19244614 18.30079296 11.62866211 18.36352539 C10.33508789 18.39704102 9.04151367 18.43055664 7.70874023 18.46508789 C6.46157227 18.47797852 5.2144043 18.49086914 3.92944336 18.50415039 C2.78258057 18.52509766 1.63571777 18.54604492 0.45410156 18.56762695 C-3.34826204 18.01737438 -4.96508998 16.77081348 -7.68383789 14.11352539 C-9.12814644 11.2249083 -9.06072295 9.31704838 -8.68383789 6.11352539 C-6.24633789 3.30102539 -6.24633789 3.30102539 -3.68383789 1.11352539 C-2.68383789 0.11352539 -2.68383789 0.11352539 0 0 Z " fill="#F1D300" transform="translate(25.683837890625,246.886474609375)"/>
<path d="M0 0 C1.29228516 0.01611328 2.58457031 0.03222656 3.91601562 0.04882812 C5.27085032 0.09059851 6.62566803 0.13292316 7.98046875 0.17578125 C9.35477741 0.20088056 10.72912991 0.22369089 12.10351562 0.24414062 C15.45880392 0.30300533 18.81352609 0.39268282 22.16796875 0.48828125 C22.16796875 6.09828125 22.16796875 11.70828125 22.16796875 17.48828125 C17.60483782 17.59614252 13.04425278 17.67554882 8.48046875 17.73828125 C7.18689453 17.77179688 5.89332031 17.8053125 4.56054688 17.83984375 C3.31337891 17.85273438 2.06621094 17.865625 0.78125 17.87890625 C-0.36561279 17.89985352 -1.51247559 17.92080078 -2.6940918 17.94238281 C-6.4964554 17.39213024 -8.11328334 16.14556934 -10.83203125 13.48828125 C-12.2763398 10.59966416 -12.20891631 8.69180424 -11.83203125 5.48828125 C-8.17436068 0.83217353 -5.85594554 -0.12898558 0 0 Z " fill="#FADA00" transform="translate(28.83203125,315.51171875)"/>
<path d="M0 0 C5.61 0 11.22 0 17 0 C17.09198433 4.05753083 17.17156595 8.11239665 17.21972656 12.17041016 C17.23980642 13.5497668 17.26707666 14.92903869 17.30175781 16.30810547 C17.35042817 18.29356979 17.37086418 20.27966254 17.390625 22.265625 C17.41157227 23.45961914 17.43251953 24.65361328 17.45410156 25.88378906 C16.90756391 29.63433024 15.99747331 30.75356548 13 33 C9.5625 34 9.5625 34 6 34 C3.19810554 32.23358828 1.48475089 30.96950178 0 28 C-0.08543895 25.89471067 -0.10714725 23.78668843 -0.09765625 21.6796875 C-0.09443359 20.42285156 -0.09121094 19.16601562 -0.08789062 17.87109375 C-0.07951172 16.55238281 -0.07113281 15.23367188 -0.0625 13.875 C-0.05748489 12.53515789 -0.05292201 11.195314 -0.04882812 9.85546875 C-0.03701095 6.57029343 -0.01907501 3.28514119 0 0 Z " fill="#FADB00" transform="translate(179,461)"/>
<path d="M0 0 C1.29228516 0.01611328 2.58457031 0.03222656 3.91601562 0.04882812 C5.27085032 0.09059851 6.62566803 0.13292316 7.98046875 0.17578125 C9.35477741 0.20088056 10.72912991 0.22369089 12.10351562 0.24414062 C15.45880392 0.30300533 18.81352609 0.39268282 22.16796875 0.48828125 C22.16796875 6.09828125 22.16796875 11.70828125 22.16796875 17.48828125 C18.12782575 17.62644953 14.09373099 17.74571467 10.05249023 17.81787109 C8.67981125 17.84795455 7.30732312 17.88883459 5.93530273 17.94091797 C-5.42680894 18.36127901 -5.42680894 18.36127901 -8.8515625 16.23364258 C-10.97044411 13.78898293 -11.81467296 11.57333687 -12.45703125 8.42578125 C-11.00931366 1.62150857 -6.42819553 -0.14159021 0 0 Z " fill="#FDDD00" transform="translate(28.83203125,383.51171875)"/>
<path d="M0 0 C1.25683594 0.00322266 2.51367188 0.00644531 3.80859375 0.00976562 C5.12730469 0.01814453 6.44601563 0.02652344 7.8046875 0.03515625 C9.14452961 0.04017136 10.4843735 0.04473424 11.82421875 0.04882812 C15.10939407 0.0606453 18.39454631 0.07858124 21.6796875 0.09765625 C21.6796875 5.70765625 21.6796875 11.31765625 21.6796875 17.09765625 C17.62215667 17.18964058 13.56729085 17.2692222 9.50927734 17.31738281 C8.1299207 17.33746267 6.75064881 17.36473291 5.37158203 17.39941406 C3.38611771 17.44808442 1.40002496 17.46852043 -0.5859375 17.48828125 C-1.77993164 17.50922852 -2.97392578 17.53017578 -4.20410156 17.55175781 C-7.95464274 17.00522016 -9.07387798 16.09512956 -11.3203125 13.09765625 C-12.3203125 9.66015625 -12.3203125 9.66015625 -12.3203125 6.09765625 C-8.77521596 0.47439967 -6.39653049 -0.0288132 0 0 Z " fill="#FADB00" transform="translate(29.3203125,178.90234375)"/>
<path d="M0 0 C1.29228516 0.01611328 2.58457031 0.03222656 3.91601562 0.04882812 C5.27085032 0.09059851 6.62566803 0.13292316 7.98046875 0.17578125 C9.35477741 0.20088056 10.72912991 0.22369089 12.10351562 0.24414062 C15.45880392 0.30300533 18.81352609 0.39268282 22.16796875 0.48828125 C22.16796875 6.09828125 22.16796875 11.70828125 22.16796875 17.48828125 C18.12782575 17.62644953 14.09373099 17.74571467 10.05249023 17.81787109 C8.67981125 17.84795455 7.30732312 17.88883459 5.93530273 17.94091797 C-5.42680894 18.36127901 -5.42680894 18.36127901 -8.8515625 16.23364258 C-10.97044411 13.78898293 -11.81467296 11.57333687 -12.45703125 8.42578125 C-11.00931366 1.62150857 -6.42819553 -0.14159021 0 0 Z " fill="#FDDD00" transform="translate(28.83203125,110.51171875)"/>
<path d="M0 0 C2.20214844 1.62988281 2.20214844 1.62988281 4 4 C4.45410156 7.11621094 4.45410156 7.11621094 4.390625 10.734375 C4.37128906 12.67763672 4.37128906 12.67763672 4.3515625 14.66015625 C4.31814366 16.02344824 4.28428391 17.38672949 4.25 18.75 C4.22992707 20.12888064 4.21167767 21.50778912 4.1953125 22.88671875 C4.14816016 26.25811138 4.0764174 29.62914373 4 33 C-1.61 33 -7.22 33 -13 33 C-13.10786127 28.43686907 -13.18726757 23.87628403 -13.25 19.3125 C-13.28351563 18.01892578 -13.31703125 16.72535156 -13.3515625 15.39257812 C-13.36445313 14.14541016 -13.37734375 12.89824219 -13.390625 11.61328125 C-13.41157227 10.46641846 -13.43251953 9.31955566 -13.45410156 8.13793945 C-12.90384899 4.33557585 -11.65728809 2.71874791 -9 0 C-5.81452856 -1.59273572 -3.39809153 -0.76164121 0 0 Z " fill="#FADB00" transform="translate(192,18)"/>
<path d="M0 0 C3.14755562 0.64235829 5.36320168 1.48658714 7.80786133 3.60546875 C10.80814859 8.4348862 9.64612864 14.94164433 9.4375 20.4375 C9.40738122 21.81179094 9.38000872 23.18614499 9.35546875 24.56054688 C9.28482674 27.91604212 9.17721248 31.27072219 9.0625 34.625 C3.4525 34.625 -2.1575 34.625 -7.9375 34.625 C-8.05262589 30.58536041 -8.15204033 26.54992333 -8.2121582 22.50952148 C-8.23722617 21.13692898 -8.27129082 19.76446898 -8.31469727 18.39233398 C-8.37567531 16.41449304 -8.40111009 14.43565816 -8.42578125 12.45703125 C-8.45196533 11.26827393 -8.47814941 10.0795166 -8.50512695 8.85473633 C-7.62850301 3.86684034 -4.96074224 1.05547707 0 0 Z " fill="#FDDD00" transform="translate(118.9375,16.375)"/>
<path d="M0 0 C5.61 0 11.22 0 17 0 C17.10786127 4.56313093 17.18726757 9.12371597 17.25 13.6875 C17.30027344 15.62786133 17.30027344 15.62786133 17.3515625 17.60742188 C17.36445313 18.85458984 17.37734375 20.10175781 17.390625 21.38671875 C17.41157227 22.53358154 17.43251953 23.68044434 17.45410156 24.86206055 C16.90384899 28.66442415 15.65728809 30.28125209 13 33 C10.074084 34.462958 8.24382653 34.44523109 5 34 C1.42324742 31.15841085 0.18678592 29.4556538 -0.40014648 24.8815918 C-0.49248453 21.11772953 -0.4351628 17.38791738 -0.3125 13.625 C-0.28994141 12.31660156 -0.26738281 11.00820313 -0.24414062 9.66015625 C-0.18537157 6.43961214 -0.09569658 3.21965842 0 0 Z " fill="#FDDD00" transform="translate(111,461)"/>
<path d="M0 0 C0.495 0.99 0.495 0.99 1 2 C-2.71744055 12.45389343 -11.56026691 20.2135208 -21.25 25 C-32.408867 30.25123153 -32.408867 30.25123153 -36.375 29.625 C-37.179375 29.315625 -37.179375 29.315625 -38 29 C-37.3709375 28.55011719 -36.741875 28.10023438 -36.09375 27.63671875 C-28.2202303 21.71972126 -22.14493184 14.93845745 -18.125 5.875 C-16 3 -16 3 -13.75 2.42578125 C-11.9988257 2.26682049 -10.24198017 2.16137515 -8.484375 2.109375 C-5.41490726 1.9742412 -2.8448371 1.12296201 0 0 Z " fill="#B9193A" transform="translate(375,439)"/>
<path d="M0 0 C4.43024874 0.87022743 5.91370196 2.00398461 8.5 5.6875 C9.12601538 9.65226406 9.15946039 11.68512021 6.9375 15.0625 C3.67160572 17.23976285 1.42016134 17.6875 -2.5 17.6875 C-6.28644566 15.71196313 -7.27321363 14.3678591 -8.625 10.3125 C-8.5 6.6875 -8.5 6.6875 -6.5 3.25 C-3.5 0.6875 -3.5 0.6875 0 0 Z " fill="#F6D700" transform="translate(443.5,477.3125)"/>
<path d="M0 0 C4.0553591 1.35178637 5.39946313 2.33855434 7.375 6.125 C7.375 10.04516134 6.92726285 12.29660572 4.75 15.5625 C1.37262021 17.78446039 -0.66023594 17.75101538 -4.625 17.125 C-8.30851539 14.53870196 -9.44227257 13.05524874 -10.3125 8.625 C-9.625 5.125 -9.625 5.125 -7.0625 2.125 C-3.625 0.125 -3.625 0.125 0 0 Z " fill="#F6D700" transform="translate(487.625,434.875)"/>
<path d="M0 0 C4.4297642 0.79102932 5.89210172 1.98974785 8.5 5.625 C9.21235686 9.4242366 8.81263988 11.06224821 6.9375 14.4375 C3.73003157 17.31599731 1.7850666 17.70017661 -2.5 17.625 C-5.30189446 15.85858828 -7.01524911 14.59450178 -8.5 11.625 C-9.03507099 7.6119676 -8.83051628 6.08571967 -6.4375 2.75 C-3.5 0.625 -3.5 0.625 0 0 Z " fill="#F6D700" transform="translate(486.5,59.375)"/>
<path d="M0 0 C2.4375 1.625 2.4375 1.625 4 4 C4.72125695 8.40768137 4.52001338 10.25937488 1.9375 13.9375 C-1 16 -1 16 -4.5 16.6875 C-8 16 -8 16 -11 13.4375 C-13 10 -13 10 -13.125 6.375 C-10.80869361 -0.57391916 -6.85196698 -1.99329948 0 0 Z " fill="#F6D700" transform="translate(448,18)"/>
<path d="M0 0 C7.63579215 1.33348553 13.95034387 4.07309217 20.875 7.5 C22.421875 8.24830078 22.421875 8.24830078 24 9.01171875 C31.48409125 12.65606084 31.48409125 12.65606084 35 15 C35 15.66 35 16.32 35 17 C33.02 17.66 31.04 18.32 29 19 C28.53335937 18.45472656 28.06671875 17.90945312 27.5859375 17.34765625 C23.95861564 14.05457402 19.87734557 11.83916773 15.625 9.4375 C14.78710938 8.95603516 13.94921875 8.47457031 13.0859375 7.97851562 C8.78249951 5.51892489 4.46221808 3.15843448 0 1 C0 0.67 0 0.34 0 0 Z " fill="#B71839" transform="translate(316,54)"/>
<path d="M0 0 C0.33 0 0.66 0 1 0 C1.02717692 2.06242617 1.0464758 4.12495703 1.0625 6.1875 C1.07410156 7.33605469 1.08570313 8.48460937 1.09765625 9.66796875 C1.01192832 12.59300586 0.67849023 15.16316291 0 18 C-0.99 18.33 -1.98 18.66 -3 19 C-2.69127671 16.39533457 -2.37818277 13.79132309 -2.0625 11.1875 C-1.97548828 10.44951172 -1.88847656 9.71152344 -1.79882812 8.95117188 C-1.41783454 5.83266879 -0.99630626 2.98891878 0 0 Z " fill="#D72A44" transform="translate(425,187)"/>
</svg>
