<?xml version="1.0" encoding="UTF-8"?>
<svg version="1.1" xmlns="http://www.w3.org/2000/svg" width="512" height="512">
<path d="M0 0 C4.06315255 3.55104709 7.89694405 7.27611984 11.64453125 11.15625 C12.35899414 11.89029053 13.07345703 12.62433105 13.80957031 13.38061523 C15.24264461 14.8596214 16.66419809 16.34988924 18.07324219 17.85180664 C18.73098633 18.53106201 19.38873047 19.21031738 20.06640625 19.91015625 C20.65212402 20.52842285 21.2378418 21.14668945 21.84130859 21.78369141 C23.54467425 23.2348935 23.54467425 23.2348935 25.73510742 22.77587891 C28.06157878 21.80593379 28.97959035 20.72001448 30.54296875 18.74609375 C52.88719548 -7.83829541 82.09452995 -24.95506907 116.60546875 -30.00390625 C154.4997475 -32.03565836 188.52373376 -24.31428074 217.60546875 1.30859375 C219.280611 2.8620037 220.94705847 4.42483331 222.60546875 5.99609375 C223.49105469 6.81722656 224.37664062 7.63835937 225.2890625 8.484375 C247.58674027 29.83321541 263.82221995 60.79811813 264.96321106 92.01673889 C265.03200466 95.4486033 265.02014158 98.8764463 264.98046875 102.30859375 C264.97581604 103.03042847 264.97116333 103.75226318 264.96636963 104.49597168 C264.88291192 115.56558172 264.3315323 126.23144929 261.60546875 136.99609375 C261.30745361 138.21498291 261.30745361 138.21498291 261.00341797 139.45849609 C256.2924338 158.33419223 248.69398731 175.844626 239.60546875 192.99609375 C239.2590332 193.65174316 238.91259766 194.30739258 238.55566406 194.98291016 C234.35211716 202.86504134 229.80002459 210.49294389 224.85546875 217.93359375 C224.18390747 218.97290039 224.18390747 218.97290039 223.4987793 220.03320312 C221.60021536 222.81602489 220.19683263 224.7421338 217.05859375 226.08984375 C212.31664033 225.9086226 209.08838515 223.00406701 205.60546875 219.99609375 C200.6407089 214.48105264 198.58488925 207.24180663 197.60546875 199.99609375 C197.97739018 195.7744593 199.60108465 193.12280264 201.91796875 189.62109375 C221.91932389 158.14316961 237.56983727 119.91596077 229.42041016 81.95678711 C227.56451717 74.71447584 224.81905305 67.73516907 221.60546875 60.99609375 C220.97898437 59.66384766 220.97898437 59.66384766 220.33984375 58.3046875 C208.32355891 34.58288382 187.17552577 16.73262252 162.31640625 7.81640625 C136.84541119 -0.20549334 111.01944952 2.63276386 87.39355469 14.71923828 C71.52247795 23.26310293 58.94068951 36.61770386 47.25292969 50.12158203 C44.89678561 52.80244662 42.43308964 55.33803334 39.91796875 57.87109375 C39.00660156 58.79664063 38.09523438 59.7221875 37.15625 60.67578125 C33.01557296 64.44233893 30.32338584 65.29993704 24.73046875 65.37109375 C23.72242188 65.39945312 22.714375 65.4278125 21.67578125 65.45703125 C15.27337743 64.49585612 11.00971275 59.70084881 6.66796875 55.24609375 C6.13856689 54.71024658 5.60916504 54.17439941 5.0637207 53.62231445 C2.37819297 50.88404043 -0.22494256 48.10937187 -2.70703125 45.18359375 C-22.75482251 21.87560342 -45.42253695 6.33785522 -76.72045898 3.37744141 C-102.12357329 1.50747992 -127.11722394 10.49191863 -146.39453125 26.99609375 C-166.93844714 45.27329266 -179.95755414 69.5110881 -182.203125 97.09375 C-185.00654012 148.00004441 -152.48768607 195.756022 -121.39453125 232.99609375 C-120.97445801 233.50253418 -120.55438477 234.00897461 -120.12158203 234.53076172 C-113.66653534 242.30697481 -106.98517868 249.82903697 -100.07470703 257.20263672 C-98.22844798 259.17337473 -96.38760812 261.14910017 -94.546875 263.125 C-93.22552752 264.54061395 -91.90391644 265.9559819 -90.58203125 267.37109375 C-89.97198242 268.02505127 -89.36193359 268.67900879 -88.73339844 269.3527832 C-80.87431254 277.74472521 -80.87431254 277.74472521 -72.39453125 285.49609375 C-69.78805516 287.74167315 -67.30518604 290.04160887 -64.89453125 292.49609375 C-61.90580788 295.532043 -58.77746646 298.34118034 -55.55078125 301.12109375 C-53.19490167 303.16968469 -50.88945665 305.26812377 -48.58203125 307.37109375 C-44.26678549 311.26533993 -39.8236137 314.96264099 -35.3046875 318.6171875 C-32.7255586 320.72549555 -30.18530123 322.86913092 -27.65478516 325.03491211 C-21.89695795 329.95975416 -16.01775546 334.67715239 -9.98046875 339.2578125 C-7.297136 341.29583496 -4.64237673 343.36722465 -1.99609375 345.453125 C10.20455933 355.64453422 10.20455933 355.64453422 23.60546875 363.99609375 C26.91526557 363.55231497 29.01271 362.19595833 31.66015625 360.22265625 C32.43302979 359.65047363 33.20590332 359.07829102 34.00219727 358.48876953 C34.82002686 357.87243652 35.63785645 357.25610352 36.48046875 356.62109375 C37.32601318 355.99058105 38.17155762 355.36006836 39.04272461 354.71044922 C48.08331825 347.94261142 56.93440286 340.95255409 65.73046875 333.87109375 C66.51421875 333.25105469 67.29796875 332.63101562 68.10546875 331.9921875 C69.96045604 330.51109608 71.79008011 328.99812037 73.60546875 327.46875 C82.31602483 320.2915792 82.31602483 320.2915792 86.79296875 320.55859375 C93.18686284 322.37019708 98.82912696 326.36717907 102.60546875 331.80859375 C104.87957514 336.06546194 106.80347664 340.14582569 105.60546875 344.99609375 C102.7895455 348.63984629 99.25980956 351.2290397 95.60546875 353.99609375 C94.55215162 354.83275484 93.50141811 355.67267761 92.453125 356.515625 C89.52297981 358.860089 86.56138618 361.16136831 83.59179688 363.45556641 C81.50004305 365.07785827 79.41921086 366.71342923 77.33984375 368.3515625 C33.74732924 402.61821988 33.74732924 402.61821988 21.875 402.44921875 C16.05000586 401.64193163 12.19556253 398.49641042 7.60546875 394.99609375 C6.37874993 394.08959328 5.150812 393.18474102 3.921875 392.28125 C0.49065429 389.74326693 -2.90973652 387.1666235 -6.30517578 384.58105469 C-9.02764855 382.51581827 -11.76801149 380.47509275 -14.50830078 378.43359375 C-30.93259077 366.1841597 -46.82051696 353.30866393 -62.39453125 339.99609375 C-62.99845703 339.47998535 -63.60238281 338.96387695 -64.22460938 338.43212891 C-72.50807341 331.33849508 -80.65243059 324.12011786 -88.61230469 316.66503906 C-89.87447469 315.48309466 -91.13831468 314.30293243 -92.40332031 313.12402344 C-116.94706693 290.25038004 -116.94706693 290.25038004 -125.46484375 280.20703125 C-127.60537086 277.75452449 -129.82233262 275.38588762 -132.05102539 273.01367188 C-138.12065912 266.54997327 -143.86920788 259.93574904 -149.39453125 252.99609375 C-150.3019891 251.89077924 -151.21092412 250.78667633 -152.12109375 249.68359375 C-169.36795914 228.65766127 -184.95375839 205.7132185 -196.39453125 180.99609375 C-196.72791504 180.2892041 -197.06129883 179.58231445 -197.40478516 178.85400391 C-215.05021067 141.31917807 -222.65126875 99.03750876 -208.76098633 59.01123047 C-195.9640924 24.12779884 -169.23793697 -4.08959565 -135.79980469 -19.92871094 C-129.17739735 -22.88903188 -122.38169576 -25.08756759 -115.39453125 -27.00390625 C-114.22019531 -27.34292969 -113.04585938 -27.68195312 -111.8359375 -28.03125 C-72.39307 -37.40595126 -30.60691937 -25.6139472 0 0 Z " fill="#A40881" transform="translate(231.39453125,70.00390625)"/>
<path d="M0 0 C5.00685202 2.32460987 7.27137555 5.27911553 10 10 C11.04281673 13.14173996 11.72503225 16.33256718 12.40234375 19.5703125 C12.60678604 20.48779266 12.81122833 21.40527283 13.02186584 22.35055542 C13.67242006 25.27287865 14.30673884 28.19834545 14.9375 31.125 C20.48561253 58.61325343 20.48561253 58.61325343 38.42041016 79.33935547 C50.14765965 86.88892494 64.43906607 88.81331694 77.83496094 91.70043945 C80.70226684 92.32245139 83.56593321 92.9595253 86.4296875 93.59765625 C87.30164764 93.78006363 88.17360779 93.96247101 89.07199097 94.15040588 C95.3885016 95.56303353 99.83382382 97.71981455 104.375 102.5 C106.77303575 107.66500009 106.75381535 112.4002288 106 118 C103.67539013 123.00685202 100.72088447 125.27137555 96 128 C92.85826004 129.04281673 89.66743282 129.72503225 86.4296875 130.40234375 C85.05346725 130.70900719 85.05346725 130.70900719 83.64944458 131.02186584 C80.72712135 131.67242006 77.80165455 132.30673884 74.875 132.9375 C47.38674657 138.48561253 47.38674657 138.48561253 26.66064453 156.42041016 C19.11107506 168.14765965 17.18668306 182.43906607 14.29956055 195.83496094 C13.67754861 198.70226684 13.0404747 201.56593321 12.40234375 204.4296875 C12.21993637 205.30164764 12.03752899 206.17360779 11.84959412 207.07199097 C10.43696647 213.3885016 8.28018545 217.83382382 3.5 222.375 C-1.66500009 224.77303575 -6.4002288 224.75381535 -12 224 C-17.00685202 221.67539013 -19.27137555 218.72088447 -22 214 C-23.04281673 210.85826004 -23.72503225 207.66743282 -24.40234375 204.4296875 C-24.70900719 203.05346725 -24.70900719 203.05346725 -25.02186584 201.64944458 C-25.67242006 198.72712135 -26.30673884 195.80165455 -26.9375 192.875 C-32.67164844 165.47722628 -32.67164844 165.47722628 -50.49609375 144.60546875 C-57.39166394 140.18412811 -63.91089649 138.04531539 -71.8515625 136.34375 C-73.94011645 135.87375251 -76.02865774 135.40369874 -78.1171875 134.93359375 C-81.37943824 134.21274951 -84.64258493 133.49615068 -87.90625 132.78173828 C-91.07793925 132.08364262 -94.24598345 131.3705213 -97.4140625 130.65625 C-98.38606598 130.44883179 -99.35806946 130.24141357 -100.35952759 130.02770996 C-107.14042027 128.49305584 -111.51025332 126.62078598 -116.375 121.5 C-118.77303575 116.33499991 -118.75381535 111.5997712 -118 106 C-115.67539013 100.99314798 -112.72088447 98.72862445 -108 96 C-104.85826004 94.95718327 -101.66743282 94.27496775 -98.4296875 93.59765625 C-97.51220734 93.39321396 -96.59472717 93.18877167 -95.64944458 92.97813416 C-92.72712135 92.32757994 -89.80165455 91.69326116 -86.875 91.0625 C-59.39422811 85.51138084 -59.39422811 85.51138084 -38.66259766 67.58813477 C-32.0252533 57.25590458 -29.96745892 45.1259628 -27.4375 33.3125 C-26.87661817 30.70240065 -26.31216716 28.09335666 -25.7358551 25.48661804 C-25.38050549 23.87907662 -25.03356922 22.26964015 -24.6971283 20.65803528 C-23.23181042 14.02348293 -21.38830751 7.27457858 -16.375 2.5 C-11.11697202 -0.82085978 -6.11780859 -0.5685398 0 0 Z M-7 79 C-8.08591613 80.58224899 -9.0924146 82.21920412 -10.0625 83.875 C-17.0561151 95.09932053 -26.7648042 105.42005322 -39 111 C-39 111.66 -39 112.32 -39 113 C-37.41775101 114.08591613 -35.78079588 115.0924146 -34.125 116.0625 C-22.90067947 123.0561151 -12.57994678 132.7648042 -7 145 C-3.30389292 143.76796431 -3.15871881 142.90566889 -1.375 139.5625 C4.96825169 128.63714513 13.86032752 120.59824039 24.828125 114.40234375 C25.54484375 113.93957031 26.2615625 113.47679687 27 113 C27 112.34 27 111.68 27 111 C25.41775101 109.91408387 23.78079588 108.9075854 22.125 107.9375 C10.90067947 100.9438849 0.57994678 91.2351958 -5 79 C-5.66 79 -6.32 79 -7 79 Z " fill="#6100C8" transform="translate(390,232)"/>
</svg>
