<?xml version="1.0" encoding="UTF-8"?>
<svg version="1.1" xmlns="http://www.w3.org/2000/svg" width="512" height="512">
<path d="M0 0 C0.88558594 0.56847656 0.88558594 0.56847656 1.7890625 1.1484375 C6.75249377 4.17697183 11.77200765 2.39826994 17.2265625 1.5 C25.23899557 0.46449488 31.27337112 2.483058 37.71484375 7.23828125 C38.44058594 7.82738281 39.16632813 8.41648437 39.9140625 9.0234375 C40.60886719 9.58160156 41.30367188 10.13976563 42.01953125 10.71484375 C49.79845198 17.72862473 54.88556262 26.94647629 60.43945312 35.71533203 C69.14045213 49.87436903 69.14045213 49.87436903 82.9140625 58.0234375 C88.41223931 58.47410773 91.91614852 57.78254483 96.9609375 55.70703125 C100.08268097 54.61442104 102.6636455 54.57730183 105.9140625 55.0234375 C107.9765625 56.7109375 107.9765625 56.7109375 108.9140625 59.0234375 C108.2858391 62.24308244 107.42730485 63.61906474 104.8515625 65.6484375 C95.37486856 70.08433679 86.01009139 72.08387203 75.7890625 68.5859375 C61.03561708 61.81115536 52.40284146 46.21477833 44.33837891 32.87353516 C38.92984018 24.05722979 33.28412211 15.97875944 22.8515625 13.2109375 C19.69948196 13.00974087 17.01125255 13.46070255 13.9140625 14.0234375 C13.89988281 14.8690625 13.88570313 15.7146875 13.87109375 16.5859375 C13.5422861 24.40622757 12.60135999 30.33614001 6.9140625 36.0234375 C6.80507722 38.0227152 6.76715606 40.02587737 6.75584412 42.02809143 C6.7460553 43.33365997 6.73626648 44.63922852 6.72618103 45.98435974 C6.72027605 47.4447323 6.71446566 48.90510524 6.70874023 50.36547852 C6.69916722 51.89270293 6.68915749 53.41992466 6.67874146 54.94714355 C6.6516238 59.10602551 6.63065152 63.2649189 6.61073947 67.42384076 C6.58892208 71.76540556 6.56151268 76.10693487 6.53468323 80.44847107 C6.48469873 88.67554758 6.43978134 96.90264374 6.39666086 105.12975878 C6.34733758 114.49359335 6.29240131 123.85739231 6.23698127 133.22119248 C6.12307288 152.48857445 6.01625323 171.75599 5.9140625 191.0234375 C6.54482917 191.01975033 7.17559584 191.01606316 7.82547665 191.01226425 C23.2004602 190.92378007 38.57535472 190.85766339 53.95053005 190.81618881 C61.38597721 190.79559693 68.82125401 190.76754135 76.2565918 190.72167969 C82.74012228 190.68170803 89.22352932 190.65598017 95.70717961 190.64708352 C99.13767445 190.64188611 102.56781628 190.62974195 105.99819756 190.60051727 C109.83551704 190.57141278 113.67210909 190.56748465 117.50952148 190.56933594 C118.63665558 190.55495483 119.76378967 190.54057373 120.92507935 190.52575684 C128.79659116 190.56675488 134.80497826 192.03564574 141.21875 196.69921875 C148.16737643 203.94169256 150.04167856 211.10367197 150.03431702 221.0785675 C150.03559865 222.12628154 150.03559865 222.12628154 150.03690618 223.19516152 C150.03854957 225.52897841 150.03305833 227.86272297 150.02758789 230.1965332 C150.02730575 231.87212624 150.02746428 233.54771941 150.0280304 235.22331238 C150.02831731 239.76833673 150.02243767 244.31333468 150.01545644 248.8583529 C150.00920528 253.60960268 150.0086177 258.36085306 150.00743103 263.11210632 C150.00432292 272.10760134 149.99611652 281.1030842 149.98608154 290.09857386 C149.97490428 300.34033126 149.96940588 310.58208925 149.96438611 320.82385123 C149.95393349 341.89038677 149.93634409 362.95691137 149.9140625 384.0234375 C150.66969482 384.1561203 151.42532715 384.2888031 152.20385742 384.42550659 C153.69042847 384.69030319 153.69042847 384.69030319 155.20703125 384.96044922 C156.18953857 385.13438202 157.1720459 385.30831482 158.18432617 385.48751831 C171.65234928 388.13164623 184.02668399 396.91774175 191.9140625 408.0234375 C200.64425417 422.53277014 204.44577007 438.21326173 200.8515625 455.0234375 C196.16298052 471.37895605 186.63878577 484.33913151 171.9140625 493.0234375 C157.10290696 499.76645509 140.66587658 501.89970884 124.8515625 497.0859375 C109.58826766 491.0950522 98.11378092 480.56951832 91.0078125 465.78515625 C89.97488253 463.17700808 89.4236704 460.77122715 88.9140625 458.0234375 C88.24210594 458.02457666 87.57014938 458.02571582 86.87783051 458.0268895 C47.05404658 458.09402074 7.23026996 458.14549567 -32.59355909 458.17663349 C-37.37503558 458.18038562 -42.15651196 458.18426858 -46.93798828 458.18823242 C-47.88989591 458.18901935 -48.84180354 458.18980628 -49.82255685 458.19061706 C-65.23660249 458.20367171 -80.65061456 458.22732588 -96.06464028 458.25489589 C-111.88033038 458.28294844 -127.69600289 458.29961344 -143.51171684 458.30570298 C-153.27120305 458.30981973 -163.03059439 458.32282319 -172.7900514 458.3471869 C-179.48207477 458.36304222 -186.17404909 458.36783832 -192.86608988 458.36394163 C-196.7273041 458.36201977 -200.58835252 458.36497024 -204.44953728 458.38105392 C-208.63760915 458.39837169 -212.82532818 458.3923991 -217.01342773 458.38420105 C-218.23133751 458.39293957 -219.44924728 458.4016781 -220.70406342 458.41068143 C-229.75183389 458.36273348 -236.70167675 457.03648216 -243.546875 450.76953125 C-249.45075683 444.07147242 -250.23506732 436.66070585 -250.22637939 428.06111145 C-250.22935052 427.14524456 -250.23232164 426.22937767 -250.2353828 425.28575724 C-250.24407023 422.20978273 -250.24557809 419.13384714 -250.24707031 416.05786133 C-250.25169848 413.85515255 -250.25672314 411.65244458 -250.26211548 409.44973755 C-250.27524231 403.45989203 -250.2816851 397.47005771 -250.28612614 391.48020005 C-250.28905665 387.73793973 -250.29316144 383.99568247 -250.29763031 380.25342369 C-250.30973949 369.8863341 -250.3201212 359.51924667 -250.3235054 349.15215015 C-250.32372497 348.48884217 -250.32394453 347.82553418 -250.32417075 347.14212595 C-250.32438903 346.47725418 -250.32460731 345.81238242 -250.3248322 345.12736303 C-250.32527566 343.7801398 -250.32572223 342.43291658 -250.32617188 341.08569336 C-250.3263933 340.41742784 -250.32661473 339.74916231 -250.32684287 339.06064632 C-250.33078866 328.238751 -250.34823631 317.41692311 -250.3715314 306.59505383 C-250.3952709 295.47669118 -250.40745071 284.35835655 -250.40887332 273.23996753 C-250.40992125 267.00054867 -250.41582654 260.76122491 -250.43369293 254.52182961 C-250.45017749 248.65068849 -250.45232713 242.77971391 -250.44355392 236.90855789 C-250.44278374 234.75634121 -250.4471238 232.60411557 -250.45701218 230.45192146 C-250.46974252 227.50797741 -250.46384873 224.56462215 -250.45343018 221.62068176 C-250.46148658 220.77416245 -250.46954298 219.92764313 -250.47784352 219.05547172 C-250.41116252 210.96839616 -248.58834369 203.59048567 -242.93013096 197.58129978 C-236.22601614 191.91807201 -229.3271725 190.2949467 -220.76196289 190.58618164 C-219.78330765 190.59818604 -218.8046524 190.61019043 -217.79634094 190.62255859 C-215.68901893 190.65033653 -213.58181682 190.68897001 -211.47487068 190.73750496 C-208.13120727 190.80972525 -204.78928727 190.84234606 -201.44493103 190.86338806 C-191.94394916 190.92674824 -182.44472567 191.03322706 -172.94555664 191.23217773 C-167.11744215 191.35143299 -161.29204779 191.40180773 -155.46276665 191.4092083 C-153.25259886 191.42533673 -151.04245433 191.46719972 -148.83329964 191.53602791 C-137.5039776 192.28657068 -137.5039776 192.28657068 -127.1150322 188.68281174 C-123.76099842 185.48738089 -121.36907303 181.85437853 -119.13023186 177.82366753 C-117.44679804 174.92164274 -115.39261049 172.35886751 -113.3359375 169.7109375 C-112.68109375 168.82792969 -112.02625 167.94492188 -111.3515625 167.03515625 C-108.30208017 164.32742625 -106.11779321 164.04645038 -102.0859375 164.0234375 C-101.0959375 165.0134375 -100.1059375 166.0034375 -99.0859375 167.0234375 C-99.0859375 174.9434375 -99.0859375 182.8634375 -99.0859375 191.0234375 C-74.6659375 191.0234375 -50.2459375 191.0234375 -25.0859375 191.0234375 C-25.14736648 163.31435652 -25.14736648 163.31435652 -25.24609375 135.60546875 C-25.29464197 124.30517765 -25.33908241 113.00497671 -25.35693359 101.70458984 C-25.36995363 93.4744042 -25.3969273 85.24440184 -25.44055057 77.01431942 C-25.46315748 72.65783818 -25.47884865 68.30158294 -25.47782135 63.94503784 C-25.47707428 59.84092419 -25.49504365 55.73730997 -25.52710533 51.63332558 C-25.53559428 50.13058056 -25.53736107 48.62777946 -25.53174019 47.12502098 C-25.50578877 39.11762353 -25.79902598 32.98375598 -30.0859375 26.0234375 C-31.08399818 19.59498366 -30.8308019 13.50698894 -27.0859375 8.0234375 C-26.5290625 7.1571875 -25.9721875 6.2909375 -25.3984375 5.3984375 C-19.04714686 -1.12450964 -8.61469634 -4.03309754 0 0 Z " fill="#0F1F56" transform="translate(280.0859375,6.9765625)"/>
<path d="M0 0 C3.93851214 1.65132798 6.8898332 4.34379973 10.0625 7.125 C23.76915111 19.48351521 23.76915111 19.48351521 41.0390625 23.2421875 C48.90446822 22.59884297 54.15363844 17.82718601 60 13 C71.97446336 3.12398224 71.97446336 3.12398224 77 0 C85.43550617 6.67379112 93.72366488 13.52296198 102.02001953 20.36816406 C106.33595179 23.925216 110.66871385 27.46167239 115 31 C117.75804664 33.2562244 120.51573997 35.51288017 123.2734375 37.76953125 C125.02817784 39.20499935 126.78335155 40.63993796 128.5390625 42.07421875 C134.9483885 47.31205163 141.33943196 52.57177219 147.72753906 57.83544922 C152.62318682 61.86850964 157.52566038 65.89291763 162.4375 69.90625 C166.12538715 72.91952364 169.8085093 75.93861433 173.4921875 78.95703125 C175.98312014 80.98624896 178.48811818 82.99679676 181 85 C180.41394543 88.22330013 179.60698419 91.17258396 178.5 94.25 C176.34172694 101.75762511 176.34172694 101.75762511 176 117 C72.05 117 -31.9 117 -139 117 C-139 116.01 -139 115.02 -139 114 C-136.98046875 112.0546875 -136.98046875 112.0546875 -134.1875 109.875 C-133.18074219 109.07835937 -132.17398438 108.28171875 -131.13671875 107.4609375 C-130.10160156 106.64882813 -129.06648438 105.83671875 -128 105 C-126.16289473 103.50462201 -124.32944577 102.00473894 -122.5 100.5 C-119.8210008 98.30774854 -117.14175792 96.11580532 -114.4609375 93.92578125 C-108.7965921 89.29676182 -103.14559447 84.65186094 -97.5 80 C-91.01094999 74.65314796 -84.51155167 69.31943682 -78 64 C-76.16654964 62.50014304 -74.33321829 61.0001406 -72.5 59.5 C-65.16666667 53.5 -57.83333333 47.5 -50.5 41.5 C-49.58476562 40.75105469 -48.66953125 40.00210938 -47.7265625 39.23046875 C-45.97182216 37.79500065 -44.21664845 36.36006204 -42.4609375 34.92578125 C-36.05524333 29.69091638 -29.6675628 24.43448672 -23.28344727 19.17333984 C-18.28143839 15.0521914 -13.26877912 10.94445977 -8.25 6.84375 C-5.48606667 4.57886019 -2.73905544 2.29488429 0 0 Z " fill="#E58107" transform="translate(191,338)"/>
<path d="M0 0 C29.7 0 59.4 0 90 0 C88 4 88 4 85.375 6.875 C82.73739786 9.79232769 82.73739786 9.79232769 82.625 13.3125 C82.71277975 15.91364731 82.71277975 15.91364731 84 17 C86.52596259 17.23653523 89.03107207 17.42173692 91.5625 17.5625 C92.27341797 17.60568359 92.98433594 17.64886719 93.71679688 17.69335938 C95.47761912 17.79971777 97.2387832 17.90038846 99 18 C99.08636719 18.63164062 99.17273438 19.26328125 99.26171875 19.9140625 C102.17701913 38.47569979 110.35716234 54.65690589 125.6640625 65.96875 C137.55272073 73.87219604 149.35669814 77.37343926 163.5625 77.25 C164.90344727 77.26160156 164.90344727 77.26160156 166.27148438 77.2734375 C174.4371268 77.24954389 181.18055468 75.46948762 188.8125 72.5 C189.91207031 72.0771875 191.01164063 71.654375 192.14453125 71.21875 C195.12214678 70.05113347 195.12214678 70.05113347 198 68 C200.96076291 68.35888035 201.84658021 68.84658021 204 71 C207.09926819 70.67801034 207.09926819 70.67801034 210 70 C210.44189287 67.0601111 210.57871667 64.88494473 208.90859985 62.33108521 C207.28222632 60.48785743 205.58742361 58.75608685 203.83203125 57.03515625 C203.20020432 56.39758896 202.56837738 55.76002167 201.91740417 55.10313416 C200.58047949 53.76213333 199.23597471 52.42865272 197.88452148 51.10229492 C195.81592184 49.06586862 193.7813245 46.99936181 191.74804688 44.92773438 C190.44462827 43.62827969 189.13935014 42.33068697 187.83203125 41.03515625 C187.22349808 40.41447769 186.6149649 39.79379913 185.98799133 39.15431213 C184.37925379 37.59801293 182.88793905 36.20232391 181 35 C178.33833934 35.05603257 176.90538212 35.09461788 175 37 C174.70643846 40.62059232 175.14935681 42.87703962 177 46 C168.92481401 49.1000714 159.73667034 49.58065227 151.5 46.83203125 C148.52076592 45.38337868 145.76893307 43.8154797 143 42 C142.38640625 41.61714844 141.7728125 41.23429687 141.140625 40.83984375 C133.63324889 35.44149856 129.80060776 25.70293749 128 17 C128 11.39 128 5.78 128 0 C202.91 0 277.82 0 355 0 C355 3 355 3 353.5234375 4.65625 C348.29990306 9.13899228 342.95307123 13.4253165 337.51611328 17.64379883 C333.15625487 21.04290171 328.92972968 24.56978918 324.75 28.1875 C320.18077614 32.14233246 315.56210958 35.99803962 310.8203125 39.74609375 C307.03536086 42.77090967 303.2996475 45.85393617 299.5625 48.9375 C298.82330322 49.54730713 298.08410645 50.15711426 297.32250977 50.78540039 C295.87496907 51.97961745 294.42745843 53.17387096 292.97998047 54.36816406 C287.82855184 58.61380512 282.65451364 62.8318724 277.484375 67.0546875 C271.812558 71.69063373 266.15344292 76.34167208 260.5 81 C253.175355 87.03536619 245.834968 93.05094229 238.484375 99.0546875 C232.812558 103.69063373 227.15344292 108.34167208 221.5 113 C215.85787407 117.64900293 210.21349082 122.29491203 204.546875 126.9140625 C202.75820916 128.37901275 200.97763646 129.85387346 199.203125 131.3359375 C196.49281832 133.58953504 193.75959311 135.80710905 191 138 C190.21625 138.62648438 189.4325 139.25296875 188.625 139.8984375 C184.30447439 143.09382624 180.72126079 145.05771708 175.2421875 144.640625 C170.66135909 143.33181688 167.48727316 140.11445613 164 137 C162.21358118 135.5352429 160.42168302 134.07714864 158.625 132.625 C156.74954447 131.08388752 154.87454705 129.54221738 153 128 C151.16712943 126.49943458 149.33379879 124.99943092 147.5 123.5 C136.5 114.5 136.5 114.5 133.7265625 112.23046875 C131.97182216 110.79500065 130.21664845 109.36006204 128.4609375 107.92578125 C122.0516115 102.68794837 115.66056804 97.42822781 109.27246094 92.16455078 C103.52544938 87.43013237 97.76644221 82.71073971 92 78 C89.24195336 75.7437756 86.48426003 73.48711983 83.7265625 71.23046875 C81.97182216 69.79500065 80.21664845 68.36006204 78.4609375 66.92578125 C72.0516115 61.68794837 65.66056804 56.42822781 59.27246094 51.16455078 C53.52544938 46.43013237 47.76644221 41.71073971 42 37 C40.16654964 35.50014304 38.33321829 34.0001406 36.5 32.5 C35.13875 31.38625 35.13875 31.38625 33.75 30.25 C31 28 28.25 25.75 25.5 23.5 C24.59378906 22.75878906 23.68757813 22.01757812 22.75390625 21.25390625 C20.90662478 19.74201773 19.06028125 18.22898251 17.21484375 16.71484375 C11.17842673 11.7651516 5.10728791 6.86198409 -1 2 C-0.67 1.34 -0.34 0.68 0 0 Z " fill="#DF7200" transform="translate(52,208)"/>
<path d="M0 0 C3.48509931 1.54444076 6.14322337 3.62475353 9.0625 6.0625 C10.03316406 6.86816406 11.00382812 7.67382812 12.00390625 8.50390625 C12.99261719 9.32761719 13.98132813 10.15132812 15 11 C16.8317253 12.50196322 18.6650256 14.00200799 20.5 15.5 C31.5 24.5 31.5 24.5 34.2734375 26.76953125 C36.02817784 28.20499935 37.78335155 29.63993796 39.5390625 31.07421875 C45.9483885 36.31205163 52.33943196 41.57177219 58.72753906 46.83544922 C64.47455062 51.56986763 70.23355779 56.28926029 76 61 C78.75804664 63.2562244 81.51573997 65.51288017 84.2734375 67.76953125 C86.02817784 69.20499935 87.78335155 70.63993796 89.5390625 72.07421875 C95.9483885 77.31205163 102.33943196 82.57177219 108.72753906 87.83544922 C112.77181142 91.1671421 116.81929915 94.49472753 120.875 97.8125 C121.720625 98.50472656 122.56625 99.19695312 123.4375 99.91015625 C125.26682686 101.40206154 127.10066822 102.88843831 128.9375 104.37109375 C129.906875 105.15613281 130.87625 105.94117188 131.875 106.75 C133.17050781 107.79414063 133.17050781 107.79414063 134.4921875 108.859375 C137.13647914 111.11649621 139.57313264 113.5122435 142 116 C135.45840114 121.61795118 128.87768546 127.15308038 122.0625 132.4375 C116.55337267 136.71349305 111.23501574 141.17130978 105.96240234 145.73461914 C101.98798621 149.169706 97.94194397 152.48823653 93.8203125 155.74609375 C90.03536086 158.77090967 86.2996475 161.85393617 82.5625 164.9375 C81.82330322 165.54730713 81.08410645 166.15711426 80.32250977 166.78540039 C78.87496907 167.97961745 77.42745843 169.17387096 75.97998047 170.36816406 C71.66404821 173.925216 67.33128615 177.46167239 63 181 C61.16654964 182.49985696 59.33321829 183.9998594 57.5 185.5 C53.83333333 188.5 50.16666667 191.5 46.5 194.5 C45.58476563 195.24894531 44.66953125 195.99789062 43.7265625 196.76953125 C41.97182216 198.20499935 40.21664845 199.63993796 38.4609375 201.07421875 C33.5407807 205.09507197 28.62920898 209.12604901 23.7253418 213.16674805 C22.24814649 214.38367175 20.77044879 215.59998588 19.29223633 216.81567383 C16.03035483 219.49875751 12.77240397 222.18566008 9.53515625 224.8984375 C8.55417969 225.71570313 7.57320312 226.53296875 6.5625 227.375 C5.71816406 228.08398438 4.87382813 228.79296875 4.00390625 229.5234375 C2 231 2 231 0 231 C-1.3255368 227.0233896 -1.13762225 223.21843479 -1.12698364 219.07286072 C-1.12854363 218.14882574 -1.13010362 217.22479077 -1.13171089 216.27275473 C-1.13571287 213.16350992 -1.13253432 210.05431357 -1.12939453 206.94506836 C-1.13074892 204.72129793 -1.13252906 202.49752772 -1.13470459 200.27375793 C-1.13927421 194.22440187 -1.13749135 188.17506281 -1.1343255 182.12570643 C-1.1317998 175.8058548 -1.13414 169.48600465 -1.13571167 163.16615295 C-1.13764936 151.87227865 -1.13453533 140.578413 -1.12945233 129.28454042 C-1.12498338 119.03759016 -1.12576136 108.79065123 -1.13037109 98.54370117 C-1.13571837 86.65167031 -1.13771697 74.75964633 -1.13475883 62.86761385 C-1.13319649 56.5697541 -1.13300114 50.27190215 -1.13629532 43.97404289 C-1.13917474 38.05537447 -1.13719701 32.13672754 -1.13140106 26.21806145 C-1.13007391 24.04033443 -1.13046682 21.86260562 -1.13266373 19.6848793 C-1.13537694 16.72327997 -1.13199197 13.76175046 -1.12698364 10.80015564 C-1.12921436 9.92867337 -1.13144509 9.05719109 -1.13374341 8.15930027 C-1.1141501 2.22830021 -1.1141501 2.22830021 0 0 Z " fill="#FC9F2F" transform="translate(42,216)"/>
<path d="M0 0 C1.47745228 1.06696796 1.47745228 1.06696796 3 3 C3.36914349 6.0709486 3.36914349 6.0709486 3.36076355 9.92851257 C3.36332682 10.63753041 3.3658901 11.34654824 3.36853105 12.07705146 C3.37348226 14.45874236 3.35695458 16.83980281 3.34057617 19.22143555 C3.33973019 20.92628972 3.34020448 22.631145 3.34190369 24.33599854 C3.34276618 28.97006591 3.32509939 33.60390142 3.30418181 38.2379148 C3.28545728 43.07858598 3.28366791 47.91926218 3.28010559 52.75996399 C3.27077269 61.92910941 3.24614208 71.09814782 3.21605712 80.26724607 C3.18255182 90.7048287 3.16603685 101.14241638 3.15097082 111.58003938 C3.1195936 133.05341937 3.06680893 154.52670295 3 176 C2.06188477 176.1853833 1.12376953 176.3707666 0.15722656 176.56176758 C-1.08575195 176.81595459 -2.32873047 177.0701416 -3.609375 177.33203125 C-4.83624023 177.57928955 -6.06310547 177.82654785 -7.32714844 178.08129883 C-19.5932376 181.14945181 -30.45189503 188.93586004 -38 199 C-42.36290762 196.2046041 -46.33205565 193.14464099 -50.25 189.75 C-54.04014056 186.50459841 -57.83930473 183.28793135 -61.75 180.1875 C-68.58677616 174.76715218 -75.29053101 169.18423946 -82.02001953 163.63183594 C-86.33594988 160.07478558 -90.6683909 156.53792917 -95 153 C-102.25356094 147.07550768 -109.48902323 141.12954381 -116.71655273 135.17333984 C-121.71856161 131.0521914 -126.73122088 126.94445977 -131.75 122.84375 C-134.51393333 120.57886019 -137.26094456 118.29488429 -140 116 C-132.2521534 108.00222287 -123.64045046 101.000919 -115 94 C-113.16585669 92.50099052 -111.33251892 91.00099484 -109.5 89.5 C-106.8210008 87.30774854 -104.14175792 85.11580532 -101.4609375 82.92578125 C-95.7965921 78.29676182 -90.14559447 73.65186094 -84.5 69 C-78.01094999 63.65314796 -71.51155167 58.31943682 -65 53 C-63.16654964 51.50014304 -61.33321829 50.0001406 -59.5 48.5 C-56.8210008 46.30774854 -54.14175792 44.11580532 -51.4609375 41.92578125 C-45.7965921 37.29676182 -40.14559447 32.65186094 -34.5 28 C-28.86366837 23.35577146 -23.22264238 18.71763538 -17.56640625 14.09765625 C-15.71813945 12.58697243 -13.87204748 11.07362638 -12.02734375 9.55859375 C-10.55974609 8.35396484 -10.55974609 8.35396484 -9.0625 7.125 C-8.18722656 6.40570313 -7.31195313 5.68640625 -6.41015625 4.9453125 C-4.30601354 3.2469931 -2.1755913 1.60519265 0 0 Z " fill="#FC9F2F" transform="translate(416,216)"/>
<path d="M0 0 C0.80308594 0.44601562 1.60617187 0.89203125 2.43359375 1.3515625 C13.8594505 8.2494659 19.85011863 18.55035589 24 31 C25.34506928 45.38032292 24.4414838 57.83891742 15.75 69.8125 C6.10269275 81.1439277 -5.02159224 87.98355548 -19.9921875 89.25390625 C-33.85601587 89.76922841 -45.84389434 85.22110237 -56.21484375 76.0390625 C-66.36979902 65.55275552 -70.33314982 53.04527948 -70.3828125 38.67724609 C-70.13948489 26.82769858 -64.92950625 16.67374319 -57 8 C-53.55206819 4.89686137 -49.97480169 2.38380237 -46 0 C-45.14277344 -0.52851563 -44.28554688 -1.05703125 -43.40234375 -1.6015625 C-30.59987422 -8.19621587 -12.23569446 -7.3297821 0 0 Z " fill="#F9535C" transform="translate(447,407)"/>
<path d="M0 0 C3.69333099 1.60655532 6.48694984 3.92239605 9.5625 6.5 C12.32911711 8.81239639 14.99876548 10.99917699 18 13 C18.3251758 15.721625 18.45215026 18.22136438 18.45497131 20.94908142 C18.47363311 22.19569521 18.47363311 22.19569521 18.49267191 23.46749312 C18.53056975 26.26864379 18.54670287 29.06949443 18.56274414 31.87084961 C18.58480509 33.87298805 18.60798939 35.87511439 18.63221741 37.87722778 C18.70579601 44.46882541 18.74669615 51.06046241 18.78515625 57.65234375 C18.79992163 59.92114391 18.81479355 62.18994337 18.82977104 64.45874214 C18.88992276 73.89924218 18.94186647 83.33972339 18.97176456 92.78037167 C19.01477642 106.30853705 19.10537484 119.83440539 19.26393038 133.3617267 C19.3715952 142.8726937 19.42537379 152.38304987 19.43924993 161.89461142 C19.44889866 167.57506947 19.48177824 173.25313645 19.57191658 178.93293571 C19.65555757 184.28311133 19.67215622 189.62942383 19.63838768 194.98010635 C19.63745293 196.93811211 19.66027519 198.89630347 19.7092514 200.85369682 C20.04884077 215.22032061 20.04884077 215.22032061 16.6121757 219.88287282 C11.86020389 224.71206878 6.11398452 228.13955778 0 231 C-1.3255368 227.0233896 -1.13762225 223.21843479 -1.12698364 219.07286072 C-1.12854363 218.14882574 -1.13010362 217.22479077 -1.13171089 216.27275473 C-1.13571287 213.16350992 -1.13253432 210.05431357 -1.12939453 206.94506836 C-1.13074892 204.72129793 -1.13252906 202.49752772 -1.13470459 200.27375793 C-1.13927421 194.22440187 -1.13749135 188.17506281 -1.1343255 182.12570643 C-1.1317998 175.8058548 -1.13414 169.48600465 -1.13571167 163.16615295 C-1.13764936 151.87227865 -1.13453533 140.578413 -1.12945233 129.28454042 C-1.12498338 119.03759016 -1.12576136 108.79065123 -1.13037109 98.54370117 C-1.13571837 86.65167031 -1.13771697 74.75964633 -1.13475883 62.86761385 C-1.13319649 56.5697541 -1.13300114 50.27190215 -1.13629532 43.97404289 C-1.13917474 38.05537447 -1.13719701 32.13672754 -1.13140106 26.21806145 C-1.13007391 24.04033443 -1.13046682 21.86260562 -1.13266373 19.6848793 C-1.13537694 16.72327997 -1.13199197 13.76175046 -1.12698364 10.80015564 C-1.12921436 9.92867337 -1.13144509 9.05719109 -1.13374341 8.15930027 C-1.1141501 2.22830021 -1.1141501 2.22830021 0 0 Z " fill="#F69218" transform="translate(42,216)"/>
<path d="M0 0 C2.99220268 1.36370299 5.29026529 2.94908083 7.75 5.125 C8.36359375 5.66382813 8.9771875 6.20265625 9.609375 6.7578125 C10.06828125 7.16773438 10.5271875 7.57765625 11 8 C8.41074492 11.42088371 5.83191956 14.13288574 2.4375 16.75 C-1.22034835 19.60869966 -4.84916613 22.49177606 -8.4375 25.4375 C-9.82388672 26.57445312 -9.82388672 26.57445312 -11.23828125 27.734375 C-12.14964844 28.48203125 -13.06101562 29.2296875 -14 30 C-15.70822358 31.39596765 -17.41655857 32.79179898 -19.125 34.1875 C-23.92537595 38.11445511 -28.71356475 42.05606968 -33.5 46 C-39.98905001 51.34685204 -46.48844833 56.68056318 -53 62 C-54.83345036 63.49985696 -56.66678171 64.9998594 -58.5 66.5 C-61.1789992 68.69225146 -63.85824208 70.88419468 -66.5390625 73.07421875 C-72.2034079 77.70323818 -77.85440553 82.34813906 -83.5 87 C-89.13633163 91.64422854 -94.77735762 96.28236462 -100.43359375 100.90234375 C-102.28186055 102.41302757 -104.12795252 103.92637362 -105.97265625 105.44140625 C-106.95105469 106.24449219 -107.92945313 107.04757812 -108.9375 107.875 C-110.25041016 108.95394531 -110.25041016 108.95394531 -111.58984375 110.0546875 C-113.68983951 111.74965977 -115.84105015 113.38078761 -118 115 C27.53 115.495 27.53 115.495 176 116 C176 116.33 176 116.66 176 117 C72.05 117 -31.9 117 -139 117 C-139 116.01 -139 115.02 -139 114 C-136.98046875 112.0546875 -136.98046875 112.0546875 -134.1875 109.875 C-133.18074219 109.07835937 -132.17398438 108.28171875 -131.13671875 107.4609375 C-130.10160156 106.64882813 -129.06648438 105.83671875 -128 105 C-126.16289473 103.50462201 -124.32944577 102.00473894 -122.5 100.5 C-119.8210008 98.30774854 -117.14175792 96.11580532 -114.4609375 93.92578125 C-108.7965921 89.29676182 -103.14559447 84.65186094 -97.5 80 C-91.01094999 74.65314796 -84.51155167 69.31943682 -78 64 C-76.16654964 62.50014304 -74.33321829 61.0001406 -72.5 59.5 C-65.16666667 53.5 -57.83333333 47.5 -50.5 41.5 C-49.58476562 40.75105469 -48.66953125 40.00210938 -47.7265625 39.23046875 C-45.97182216 37.79500065 -44.21664845 36.36006204 -42.4609375 34.92578125 C-36.05524333 29.69091638 -29.6675628 24.43448672 -23.28344727 19.17333984 C-18.28143839 15.0521914 -13.26877912 10.94445977 -8.25 6.84375 C-5.48606667 4.57886019 -2.73905544 2.29488429 0 0 Z " fill="#E17400" transform="translate(191,338)"/>
<path d="M0 0 C4.12658497 2.47595098 7.58973305 5.06269913 11.1875 8.1875 C12.34415513 9.17943228 13.50171531 10.17031013 14.66015625 11.16015625 C15.22750488 11.64500488 15.79485352 12.12985352 16.37939453 12.62939453 C19.38051887 15.16755543 22.46391913 17.60062083 25.54296875 20.04296875 C30.06784881 23.64704651 34.52793103 27.3307709 39 31 C40.83310162 32.50028317 42.66643427 34.00028408 44.5 35.5 C45.41523438 36.24894531 46.33046875 36.99789062 47.2734375 37.76953125 C49.02817784 39.20499935 50.78335155 40.63993796 52.5390625 42.07421875 C58.9483885 47.31205163 65.33943196 52.57177219 71.72753906 57.83544922 C76.62318682 61.86850964 81.52566038 65.89291763 86.4375 69.90625 C90.12538715 72.91952364 93.8085093 75.93861433 97.4921875 78.95703125 C99.98312014 80.98624896 102.48811818 82.99679676 105 85 C104.34728444 88.51705958 103.48606976 91.89325077 102.4375 95.3125 C102.16808594 96.19550781 101.89867187 97.07851563 101.62109375 97.98828125 C101.41613281 98.65214844 101.21117187 99.31601562 101 100 C100.113125 99.236875 99.22625 98.47375 98.3125 97.6875 C90.24476272 90.77929581 82.17908678 83.88821154 73.85546875 77.2890625 C67.84331635 72.46947111 61.9234297 67.53568983 55.97998047 62.63183594 C51.66404821 59.074784 47.33128615 55.53832761 43 52 C40.24195336 49.7437756 37.48426003 47.48711983 34.7265625 45.23046875 C32.97182216 43.79500065 31.21664845 42.36006204 29.4609375 40.92578125 C23.05728131 35.69258186 16.67065532 30.43899374 10.29003906 25.17773438 C7.05674099 22.51262486 3.82167281 19.85009125 0.5703125 17.20703125 C-0.40164063 16.41683594 -1.37359375 15.62664062 -2.375 14.8125 C-3.62410156 13.80123047 -3.62410156 13.80123047 -4.8984375 12.76953125 C-7 11 -7 11 -10 8 C-6.7 5.36 -3.4 2.72 0 0 Z " fill="#E07400" transform="translate(267,338)"/>
<path d="M0 0 C3.3 0 6.6 0 10 0 C10 49.5 10 99 10 150 C6.7 150 3.4 150 0 150 C0 100.5 0 51 0 0 Z " fill="#3B4873" transform="translate(266,48)"/>
<path d="M0 0 C0.33 0 0.66 0 1 0 C1.00410889 0.98170166 1.00821777 1.96340332 1.01245117 2.97485352 C1.03458376 6.69361577 1.08921044 10.41137009 1.15258789 14.12963867 C1.17547581 15.72459085 1.19009338 17.31968789 1.19555664 18.91479492 C1.26073408 34.83313097 3.840173 48.78423389 15 61 C23.60956677 68.99101537 34.04719407 73.39225282 45.75 73.3125 C46.5455127 73.31048584 47.34102539 73.30847168 48.16064453 73.30639648 C54.20317178 73.20348989 59.35650959 72.18713584 65 70 C67.0546875 69.2265625 67.0546875 69.2265625 69 69 C70.703125 70.14453125 70.703125 70.14453125 72.25 71.8125 C73.03117187 72.62654297 73.03117187 72.62654297 73.828125 73.45703125 C75 75 75 75 75 77 C73.33762104 77.80063104 71.66981875 78.59000368 70 79.375 C69.071875 79.81585938 68.14375 80.25671875 67.1875 80.7109375 C55.30408106 85.51673192 39.98979306 86.35874501 27.875 81.9375 C10.34482472 73.86409457 -0.2603039 62.6046715 -6.96484375 44.5390625 C-8.74486051 38.45342028 -9.4157102 32.30509744 -10 26 C-14.455 25.01 -14.455 25.01 -19 24 C-16.2644237 18.94271687 -12.6023336 14.70806339 -8.9375 10.3125 C-8.30005859 9.54099609 -7.66261719 8.76949219 -7.00585938 7.97460938 C-2.31533004 2.31533004 -2.31533004 2.31533004 0 0 Z " fill="#3B4974" transform="translate(169,192)"/>
<path d="M0 0 C-0.6290625 0.40089844 -1.258125 0.80179687 -1.90625 1.21484375 C-14.22498067 9.39641035 -23.1377972 20.59747359 -26.4375 35.25 C-26.6647691 36.82811579 -26.85397449 38.41230442 -27 40 C-27.12181641 41.12535156 -27.12181641 41.12535156 -27.24609375 42.2734375 C-27.96385678 55.36717529 -23.17126699 69.91409898 -14.6015625 79.75390625 C-10.40972064 84.07792331 -6.22130854 87.97713716 -1 91 C-3 92 -3 92 -5.50390625 91.25 C-20.45047018 85.1415703 -28.47829046 76.59414378 -35.58203125 62.40234375 C-39.70283856 52.51467663 -39.5906964 39.18617951 -36 29.125 C-29.37327857 14.29817357 -19.32210496 5.77479695 -4.43359375 -0.28515625 C-2 -1 -2 -1 0 0 Z " fill="#EB404A" transform="translate(415,403)"/>
<path d="M0 0 C2.4375 0.8125 2.4375 0.8125 4.4375 2.8125 C4.63768591 5.8626911 4.71720761 8.82012472 4.703125 11.87109375 C4.70503845 12.77118668 4.7069519 13.6712796 4.70892334 14.59864807 C4.71028573 16.50432616 4.70658557 18.41001351 4.69824219 20.31567383 C4.68755583 23.23474995 4.69812922 26.15320889 4.7109375 29.07226562 C4.70961567 30.92187636 4.70705279 32.77148671 4.703125 34.62109375 C4.70717346 35.49616074 4.71122192 36.37122772 4.71539307 37.27281189 C4.70908875 38.08698074 4.70278442 38.9011496 4.69628906 39.73999023 C4.69390228 40.81348976 4.69390228 40.81348976 4.69146729 41.90867615 C4.4375 43.8125 4.4375 43.8125 2.4375 46.8125 C-0.5625 47.1875 -0.5625 47.1875 -3.5625 46.8125 C-5.58788151 43.77442773 -5.81509698 43.16818826 -5.8371582 39.75585938 C-5.84669022 38.94491821 -5.85622223 38.13397705 -5.86604309 37.29846191 C-5.86513168 36.42653198 -5.86422028 35.55460205 -5.86328125 34.65625 C-5.86756638 33.75757202 -5.8718515 32.85889404 -5.87626648 31.9329834 C-5.88200843 30.03329308 -5.88251103 28.13358077 -5.87817383 26.23388672 C-5.87501196 23.32351319 -5.89848096 20.41415421 -5.92382812 17.50390625 C-5.9261009 15.65885545 -5.92680472 13.81380191 -5.92578125 11.96875 C-5.934991 11.09682007 -5.94420074 10.22489014 -5.95368958 9.32653809 C-5.94746078 8.51559692 -5.94123199 7.70465576 -5.93481445 6.86914062 C-5.93544388 6.15649048 -5.9360733 5.44384033 -5.9367218 4.70959473 C-5.23651802 1.15995413 -3.55828447 -0.26036228 0 0 Z " fill="#112159" transform="translate(424.5625,415.1875)"/>
<path d="M0 0 C4.00591167 2.11633069 6.35523273 3.77611411 8 8 C8.27071457 11.15269678 7.91728843 13.97294817 7 17 C3.99703842 20.43195609 1.84814931 21.7425261 -2.5 23.0625 C-6.93414498 22.98331884 -8.66916513 21.87663011 -12 19 C-14.19850726 16.21522413 -14.93470975 14.52232202 -15.375 11 C-14.8085624 6.46849922 -13.29098138 4.03995723 -9.75 1.1875 C-6.1888795 -0.35025658 -3.85081154 -0.47290668 0 0 Z " fill="#F4525B" transform="translate(275,16)"/>
<path d="M0 0 C1.70269922 1.62161831 3.04281921 3.06903856 4.2885955 5.07763696 C5.8421303 7.20181921 5.8421303 7.20181921 8.3026163 7.50320601 C9.21584369 7.5047249 10.12907109 7.50624378 11.06997204 7.50780869 C12.12444725 7.51925627 13.17892247 7.53070386 14.26535147 7.54249835 C15.42778839 7.53473793 16.5902253 7.52697752 17.78788757 7.51898193 C19.63545638 7.53023381 19.63545638 7.53023381 21.5203498 7.541713 C24.94573502 7.55854124 28.37027612 7.55740361 31.79563677 7.54880548 C35.48687301 7.54387369 39.17800385 7.56192919 42.86920166 7.57722473 C49.26654635 7.60057283 55.66377758 7.60928369 62.06116295 7.60811615 C71.31073498 7.60644913 80.56015545 7.62675891 89.80968712 7.65247145 C104.81558155 7.69358739 119.82144879 7.71687422 134.82739258 7.72900391 C149.40619523 7.74082638 163.98494664 7.76101147 178.5637207 7.79248047 C179.4620182 7.79441657 180.3603157 7.79635267 181.28583433 7.79834744 C185.79222819 7.80811179 190.29862166 7.81804094 194.80501497 7.82805204 C232.20331946 7.91092029 269.60162172 7.9648769 307 8 C307 8.33 307 8.66 307 9 C203.05 9 99.1 9 -8 9 C-8 8.01 -8 7.02 -8 6 C-6.25 4.39453125 -6.25 4.39453125 -4 2.8125 C-3.2575 2.28269531 -2.515 1.75289063 -1.75 1.20703125 C-1.1725 0.80871094 -0.595 0.41039062 0 0 Z " fill="#AA651B" transform="translate(60,446)"/>
<path d="M0 0 C29.7 0 59.4 0 90 0 C89.67 0.66 89.34 1.32 89 2 C88.06705612 1.99111755 87.13411224 1.98223511 86.17289734 1.9730835 C77.38836236 1.89205889 68.60390302 1.83206422 59.8190794 1.79275131 C55.30248653 1.7718607 50.78619488 1.74351651 46.26977539 1.69824219 C41.91258082 1.65483647 37.55567629 1.630874 33.19828224 1.62049103 C31.53443649 1.61309011 29.87060693 1.59863799 28.20688438 1.57707977 C25.87935238 1.54811475 23.55302451 1.54404093 21.2253418 1.54589844 C20.53482224 1.53151733 19.84430267 1.51713623 19.13285828 1.50231934 C16.04575755 1.52904367 14.43290205 1.57852199 12.17341614 3.77838135 C11.08612158 5.83694675 10.04114369 7.91771261 9 10 C5.7 7.36 2.4 4.72 -1 2 C-0.67 1.34 -0.34 0.68 0 0 Z " fill="#A35A17" transform="translate(52,208)"/>
<path d="M0 0 C3 0.25 3 0.25 5 2.25 C4.625 5.875 4.625 5.875 4 9.25 C-1.44736842 10.58157895 -1.44736842 10.58157895 -3.875 9.125 C-5.3568671 6.65522151 -5.3633156 5.08386167 -5 2.25 C-3 0.25 -3 0.25 0 0 Z " fill="#13225A" transform="translate(424,471.75)"/>
<path d="M0 0 C4.95 0 9.9 0 15 0 C13.515 2.475 13.515 2.475 12 5 C11.31903578 6.32608822 10.64669414 7.65686601 10 9 C8.33043913 7.69118353 6.66441696 6.37785174 5 5.0625 C4.071875 4.33160156 3.14375 3.60070312 2.1875 2.84765625 C1.465625 2.23792969 0.74375 1.62820312 0 1 C0 0.67 0 0.34 0 0 Z " fill="#BF5902" transform="translate(51,209)"/>
<path d="M0 0 C2.79718817 2.5307893 3.91814757 4.53024595 6 8 C1.05 8 -3.9 8 -9 8 C-3.375 2.375 -3.375 2.375 0 0 Z " fill="#BF5902" transform="translate(60,446)"/>
</svg>
